<?xml version="1.0" encoding="utf-8"?>
<!-- Generator: Adobe Illustrator 16.0.0, SVG Export Plug-In . SVG Version: 6.00 Build 0)  -->
<!DOCTYPE svg PUBLIC "-//W3C//DTD SVG 1.1//EN" "http://www.w3.org/Graphics/SVG/1.1/DTD/svg11.dtd">
<svg version="1.1" id="Layer_1" xmlns="http://www.w3.org/2000/svg" xmlns:xlink="http://www.w3.org/1999/xlink" x="0px" y="0px"
	 width="792px" height="612px" viewBox="0 0 792 612" enable-background="new 0 0 792 612" xml:space="preserve">
<path fill="none" stroke="#000000" d="M7.799,62.296c0-1.565,1.268-2.835,2.834-2.835h5.528V30.266h-5.528
	c-1.566,0-2.834-1.27-2.834-2.835v-9.213h8.504c9.541,0,17.215-1.507,21.895-3.308c4.58-1.762,11.74-3.07,20.625-3.07
	c0.979,0,1.771-0.793,1.771-1.771l0,0c0-0.979-0.793-1.771-1.771-1.771c-9.54,0-17.217,1.506-21.896,3.307
	c-4.58,1.762-11.74,3.071-20.623,3.071L7.8,14.675c-2.937,0-5.316-2.379-5.316-5.314S4.865,4.047,7.8,4.047v3.26h8.504V3.336
	c0-1.565,1.268-2.834,2.834-2.834h1.418c0.361,0,0.725,0.139,1.002,0.415c0.553,0.554,1.449,0.554,2.004,0
	c0.554-0.554,1.451-0.554,2.004,0.001c0.554,0.553,1.451,0.553,2.004-0.001c0.554-0.554,1.451-0.554,2.005,0.001
	c0.555,0.553,1.45,0.553,2.004-0.001c0.555-0.554,1.45-0.554,2.006,0.001c0.553,0.553,1.449,0.553,2.004-0.001
	c0.274-0.276,0.639-0.415,1.002-0.415h208.026c0.362,0,0.727,0.139,1.002,0.415c0.555,0.554,1.45,0.554,2.004,0.001
	c0.555-0.555,1.45-0.555,2.006-0.001c0.553,0.554,1.449,0.554,2.003,0.001c0.553-0.555,1.451-0.555,2.004-0.001
	c0.554,0.554,1.452,0.554,2.005,0.001c0.553-0.555,1.451-0.555,2.004-0.001c0.556,0.554,1.451,0.554,2.004,0
	c0.277-0.276,0.642-0.415,1.002-0.415h1.418c1.566,0,2.834,1.269,2.834,2.834v3.969h8.93v-3.26c2.936,0,5.313,2.379,5.313,5.314
	s-2.379,5.314-5.313,5.314l-8.93,0.001c-8.883,0-16.043-1.31-20.624-3.071c-4.68-1.801-12.354-3.307-21.895-3.307
	c-0.979,0-1.771,0.793-1.771,1.771l0,0c0,0.979,0.794,1.771,1.771,1.771c8.883,0,16.043,1.309,20.623,3.07
	c4.68,1.801,12.354,3.308,21.895,3.308h8.93v9.213c0,1.565-1.269,2.835-2.834,2.835h-5.954v29.195h5.954
	c1.565,0,2.834,1.27,2.834,2.835V75.05c2.936,0,5.313,2.38,5.313,5.315c0,2.935-2.379,5.314-5.313,5.314v-3.26H264.9v3.969
	c0,1.564-1.268,2.834-2.834,2.834H19.137c-1.566,0-2.834-1.27-2.834-2.834v-3.969H7.799v3.26c-2.937,0-5.316-2.379-5.316-5.314
	c0-2.935,2.381-5.315,5.316-5.315V62.296z"/>
<rect x="55.562" y="73.635" fill="none" stroke="#000000" width="34.016" height="8.787"/>
<rect x="191.624" y="73.635" fill="none" stroke="#000000" width="34.016" height="8.787"/>
<rect x="73.703" y="7.305" fill="none" stroke="#000000" width="34.016" height="8.787"/>
<rect x="174.333" y="7.305" fill="none" stroke="#000000" width="34.016" height="8.787"/>
<path fill="none" stroke="#000000" stroke-miterlimit="2.6131" d="M154.632,45.395c0,1.565-1.271,2.834-2.834,2.834h-39.686
	c-1.565,0-2.834-1.269-2.834-2.834V34.764c0-0.752,0.298-1.473,0.83-2.004l2.834-2.834c0.531-0.532,1.252-0.83,2.004-0.83h34.018
	c0.752,0,1.473,0.298,2.004,0.83l2.834,2.834c0.531,0.531,0.83,1.252,0.83,2.004V45.395z"/>
<path fill="#ED1C24" d="M142.951,61.313V58.21h-3.588v3.103h-0.968v-7.415h0.968v3.477h3.588v-3.477h0.958v7.415H142.951z"/>
<path fill="#ED1C24" d="M136.86,61.214c-0.584,0.089-1.276,0.154-2.035,0.154c-1.375,0-2.354-0.319-3.004-0.924
	c-0.659-0.605-1.045-1.464-1.045-2.662c0-1.211,0.373-2.201,1.066-2.883c0.693-0.693,1.838-1.067,3.279-1.067
	c0.682,0,1.254,0.033,1.737,0.088L136.86,61.214L136.86,61.214z M135.902,54.657c-0.24-0.044-0.594-0.055-0.968-0.055
	c-2.047,0-3.158,1.144-3.158,3.146c-0.01,1.749,0.979,2.86,3.004,2.86c0.495,0,0.869-0.044,1.122-0.1V54.657L135.902,54.657z"/>
<path fill="#ED1C24" d="M123.443,57.154c0.057,1.034,0.121,2.277,0.11,3.202h0.033c0.252-0.869,0.561-1.805,0.935-2.816l1.311-3.598
	h0.726l1.199,3.531c0.353,1.045,0.648,2.002,0.857,2.883h0.021c0.021-0.925,0.077-2.168,0.144-3.278l0.198-3.18h0.912l-0.517,7.415
	h-1.223l-1.265-3.587c-0.308-0.913-0.562-1.728-0.748-2.497h-0.033c-0.187,0.748-0.45,1.562-0.779,2.497l-1.32,3.587h-1.223
	l-0.462-7.415h0.937L123.443,57.154z"/>
<path fill="#ED1C24" d="M120.001,61.313v-7.415h0.957v7.415H120.001z"/>
<path fill="none" stroke="#000000" d="M239.673,331.02V307.49h-5.528c-1.564,0-2.834-1.27-2.834-2.835v-9.213h8.504
	c9.541,0,17.215-1.507,21.896-3.307c4.579-1.762,11.74-3.07,20.624-3.07c0.979,0,1.771-0.793,1.771-1.771l0,0
	c0-0.979-0.793-1.771-1.771-1.771c-9.541,0-17.217,1.506-21.896,3.307c-4.58,1.761-11.741,3.07-20.624,3.07h-8.504
	c-2.936,0-5.314-2.379-5.314-5.314s2.38-5.315,5.314-5.315v3.26h8.504v-3.968c0-1.566,1.27-2.835,2.834-2.835h1.418
	c0.362,0.001,0.726,0.139,1.002,0.415c0.554,0.555,1.45,0.555,2.004,0c0.554-0.553,1.451-0.553,2.005,0.001s1.45,0.554,2.004-0.001
	c0.554-0.553,1.451-0.553,2.005,0.001s1.451,0.554,2.004-0.001c0.554-0.553,1.451-0.553,2.005,0.001
	c0.553,0.554,1.449,0.554,2.004-0.001c0.275-0.275,0.639-0.414,1.002-0.414h208.027c0.362,0,0.727,0.139,1.002,0.414
	c0.555,0.555,1.45,0.555,2.004,0.001s1.451-0.554,2.005-0.001c0.554,0.555,1.45,0.555,2.004,0.001s1.451-0.554,2.005-0.001
	c0.553,0.555,1.45,0.555,2.004,0.001c0.553-0.554,1.451-0.554,2.004-0.001c0.555,0.555,1.451,0.555,2.004,0
	c0.277-0.276,0.641-0.414,1.002-0.415h1.418c1.565,0,2.834,1.269,2.834,2.835v3.968h8.93v-3.26c2.936,0,5.313,2.38,5.313,5.315
	s-2.379,5.314-5.313,5.314h-8.93c-8.883,0-16.044-1.31-20.624-3.07c-4.68-1.801-12.354-3.307-21.895-3.307
	c-0.979,0-1.771,0.793-1.771,1.771l0,0c0,0.979,0.793,1.771,1.771,1.771c8.883,0,16.043,1.309,20.623,3.07
	c4.68,1.8,12.354,3.307,21.896,3.307h8.93v9.213c0,1.566-1.27,2.835-2.834,2.835h-5.953v29.195h5.953
	c1.564,0,2.834,1.27,2.834,2.834v12.756c2.936,0,5.313,2.381,5.313,5.315s-2.379,5.315-5.313,5.315v-3.26h-8.93v3.967
	c0,1.566-1.269,2.836-2.834,2.836H242.65c-1.564,0-2.834-1.27-2.834-2.836v-3.967h-8.504v3.26c-2.936,0-5.314-2.381-5.314-5.315
	s2.38-5.315,5.314-5.315v-12.754c0-1.565,1.27-2.836,2.834-2.836H343.28c1.566,0,2.835-1.27,2.835-2.834
	c0-1.565-1.269-2.836-2.835-2.836L239.673,331.02z"/>
<rect x="297.216" y="350.859" fill="none" stroke="#000000" width="34.016" height="8.787"/>
<rect x="397.845" y="350.859" fill="none" stroke="#000000" width="34.016" height="8.787"/>
<rect x="297.216" y="284.529" fill="none" stroke="#000000" width="34.016" height="8.788"/>
<rect x="397.845" y="284.529" fill="none" stroke="#000000" width="34.016" height="8.788"/>
<path fill="#ED1C24" d="M386.237,301.343c0.354-0.176,1.058-0.363,1.959-0.363c2.09,0,3.664,1.331,3.664,3.763
	c0,2.321-1.574,3.895-3.873,3.895c-0.924,0-1.508-0.198-1.76-0.329l0.23-0.781c0.362,0.177,0.881,0.308,1.495,0.308
	c1.738,0,2.895-1.11,2.895-3.059c0-1.814-1.045-2.98-2.851-2.98c-0.583,0-1.177,0.121-1.562,0.308L386.237,301.343z"/>
<path fill="#ED1C24" d="M380.554,303.808c0-1.97,1.362-2.828,2.65-2.828c1.44,0,2.553,1.057,2.553,2.739
	c0,1.782-1.166,2.827-2.642,2.827C381.587,306.546,380.554,305.435,380.554,303.808z M384.778,303.752
	c0-1.166-0.672-2.046-1.617-2.046c-0.924,0-1.616,0.869-1.616,2.068c0,0.902,0.45,2.046,1.595,2.046
	C384.282,305.82,384.778,304.765,384.778,303.752z"/>
<path fill="#ED1C24" d="M379.462,304.984c0,0.55,0.011,1.001,0.043,1.44h-0.848l-0.044-0.857h-0.033
	c-0.297,0.506-0.792,0.979-1.672,0.979c-0.727,0-1.275-0.439-1.508-1.066h-0.021c-0.165,0.297-0.374,0.527-0.595,0.693
	c-0.318,0.242-0.672,0.373-1.178,0.373c-0.703,0-1.749-0.461-1.749-2.311V301.1h0.946v3.015c0,1.021,0.374,1.64,1.155,1.64
	c0.55,0,0.979-0.408,1.144-0.881c0.045-0.132,0.078-0.309,0.078-0.484v-3.289h0.945v3.19c0,0.847,0.374,1.464,1.11,1.464
	c0.605,0,1.045-0.484,1.199-0.969c0.055-0.143,0.077-0.309,0.077-0.473V301.1h0.946v3.884H379.462z"/>
<path fill="#ED1C24" d="M370.468,304.687c0,0.683,0.021,1.232,0.043,1.738h-0.869l-0.043-0.912h-0.022
	c-0.396,0.648-1.021,1.033-1.892,1.033c-1.287,0-2.256-1.089-2.256-2.706c0-1.914,1.166-2.86,2.42-2.86
	c0.705,0,1.32,0.309,1.64,0.836h0.022v-2.893h0.957V304.687L370.468,304.687z M369.511,303.269c0-0.144-0.022-0.275-0.045-0.396
	c-0.177-0.672-0.76-1.133-1.451-1.133c-1.023,0-1.617,0.836-1.617,2.057c0,1.067,0.562,1.98,1.584,1.98
	c0.66,0,1.275-0.473,1.463-1.199c0.033-0.121,0.066-0.264,0.066-0.396V303.269L369.511,303.269z"/>
<path fill="#ED1C24" d="M359.435,303.808c0-1.97,1.363-2.828,2.65-2.828c1.44,0,2.553,1.057,2.553,2.739
	c0,1.782-1.166,2.827-2.642,2.827C360.468,306.546,359.435,305.435,359.435,303.808z M363.658,303.752
	c0-1.166-0.672-2.046-1.618-2.046c-0.924,0-1.616,0.869-1.616,2.068c0,0.902,0.45,2.046,1.595,2.046
	C363.162,305.82,363.658,304.765,363.658,303.752z"/>
<path fill="#ED1C24" d="M358.541,302.091c-0.284-0.188-0.791-0.385-1.274-0.385c-0.705,0-1.035,0.352-1.035,0.791
	c0,0.463,0.275,0.716,0.99,0.98c0.957,0.34,1.408,0.869,1.408,1.507c0,0.858-0.693,1.562-1.837,1.562
	c-0.539,0-1.014-0.153-1.311-0.33l0.242-0.703c0.209,0.131,0.594,0.308,1.09,0.308c0.572,0,0.891-0.33,0.891-0.727
	c0-0.439-0.317-0.639-1.012-0.902c-0.924-0.353-1.396-0.814-1.396-1.606c0-0.935,0.726-1.606,1.99-1.606
	c0.583,0,1.122,0.154,1.496,0.374L358.541,302.091z"/>
<path fill="#ED1C24" d="M353.188,307.921c-0.011-0.33,0.23-0.594,0.616-0.594c0.341,0,0.583,0.264,0.583,0.594
	c0,0.343-0.253,0.604-0.605,0.604C353.419,308.525,353.188,308.264,353.188,307.921z M354.267,301.101v5.324h-0.969v-5.324H354.267z
	"/>
<path fill="#ED1C24" d="M350.685,307.702v-1.277h-1.386v-0.736h1.386v-2.871c0-0.66-0.188-1.035-0.726-1.035
	c-0.266,0-0.419,0.022-0.562,0.066l-0.043-0.727c0.187-0.076,0.483-0.143,0.857-0.143c0.45,0,0.813,0.154,1.045,0.418
	c0.274,0.286,0.375,0.76,0.375,1.387v2.904h0.823v0.736h-0.823v0.979L350.685,307.702z"/>
<path fill="#ED1C24" d="M347.915,303.587c-0.021-1.309-0.857-1.848-1.825-1.848c-0.692,0-1.111,0.121-1.475,0.274l-0.166-0.692
	c0.343-0.154,0.924-0.342,1.771-0.342c1.64,0,2.619,1.09,2.619,2.695c0,1.606-0.947,2.871-2.498,2.871c-1.738,0-2.2-1.529-2.2-2.508
	c0-0.198,0.021-0.352,0.033-0.451L347.915,303.587L347.915,303.587z M345.076,304.28c-0.01,0.615,0.254,1.573,1.344,1.573
	c0.979,0,1.407-0.902,1.484-1.573H345.076z"/>
<path fill="#ED1C24" d="M389.791,290.101l2.421,7.415h-1.034l-1.155-3.652c-0.318-1.001-0.594-1.903-0.792-2.772h-0.021
	c-0.209,0.857-0.518,1.793-0.848,2.762l-1.255,3.663h-1.021l2.65-7.415L389.791,290.101L389.791,290.101z"/>
<path fill="#ED1C24" d="M384.265,296.921c-0.01-0.33,0.23-0.594,0.617-0.594c0.34,0,0.582,0.264,0.582,0.594
	c0,0.342-0.252,0.605-0.604,0.605C384.495,297.526,384.265,297.263,384.265,296.921z M385.343,290.101v5.324h-0.968v-5.324H385.343z
	"/>
<path fill="#ED1C24" d="M378.308,297.911v-6.436c0-0.473-0.012-1.012-0.045-1.375h0.869l0.045,0.924h0.021
	c0.297-0.594,0.946-1.045,1.815-1.045c1.287,0,2.276,1.09,2.276,2.707c0.012,1.771-1.089,2.859-2.388,2.859
	c-0.813,0-1.363-0.385-1.604-0.813h-0.022v3.179H378.308z M379.275,293.258c0,0.121,0.011,0.286,0.044,0.407
	c0.144,0.616,0.671,1.122,1.397,1.122c1.001,0,1.595-0.88,1.595-2.058c0-1.078-0.527-1.969-1.572-1.969
	c-0.649,0-1.244,0.43-1.42,1.155c-0.033,0.132-0.044,0.264-0.044,0.418V293.258z"/>
<path fill="#ED1C24" d="M376.29,292.587c-0.021-1.309-0.857-1.848-1.825-1.848c-0.692,0-1.111,0.121-1.475,0.274l-0.166-0.692
	c0.343-0.154,0.924-0.342,1.771-0.342c1.64,0,2.619,1.09,2.619,2.695c0,1.606-0.947,2.871-2.498,2.871c-1.738,0-2.2-1.529-2.2-2.508
	c0-0.198,0.021-0.352,0.033-0.451L376.29,292.587L376.29,292.587z M373.451,293.28c-0.01,0.615,0.254,1.573,1.344,1.573
	c0.979,0,1.407-0.902,1.484-1.573H373.451z"/>
<path fill="#ED1C24" d="M366.558,292.808c0-1.97,1.363-2.828,2.649-2.828c1.441,0,2.554,1.057,2.554,2.739
	c0,1.782-1.166,2.827-2.642,2.827C367.591,295.546,366.558,294.435,366.558,292.808z M370.781,292.752
	c0-1.166-0.672-2.046-1.618-2.046c-0.924,0-1.616,0.869-1.616,2.068c0,0.902,0.45,2.046,1.595,2.046
	C370.285,294.82,370.781,293.765,370.781,292.752z"/>
<path fill="#ED1C24" d="M356.854,293.886c0-2.553,1.552-3.906,3.443-3.906c1.959,0,3.334,1.518,3.334,3.763
	c0,2.354-1.463,3.895-3.443,3.895C358.163,297.637,356.854,296.085,356.854,293.886z M362.608,293.765
	c0-1.585-0.856-3.004-2.365-3.004c-1.518,0-2.376,1.396-2.376,3.08c0,1.475,0.771,3.015,2.365,3.015
	C361.816,296.855,362.608,295.393,362.608,293.765z"/>
<path fill="#ED1C24" d="M351.255,291.553c0-0.55-0.012-1.034-0.044-1.452h0.857l0.055,0.869h0.021c0.254-0.43,0.814-0.99,1.761-0.99
	c0.836,0,1.837,0.462,1.837,2.332v3.113h-0.968v-2.947c0-1.013-0.308-1.695-1.188-1.695c-0.648,0-1.101,0.451-1.275,0.881
	c-0.056,0.143-0.088,0.318-0.088,0.494v3.268h-0.969V291.553z"/>
<path fill="#ED1C24" d="M348.632,296.702v-1.277h-1.388v-0.736h1.388v-2.871c0-0.66-0.188-1.035-0.728-1.035
	c-0.264,0-0.418,0.022-0.561,0.066l-0.044-0.727c0.187-0.076,0.482-0.143,0.857-0.143c0.451,0,0.813,0.154,1.045,0.418
	c0.275,0.286,0.374,0.76,0.374,1.387v2.904h0.825v0.736h-0.825v0.979L348.632,296.702z"/>
<path fill="#ED1C24" d="M471.495,328.046l0.771-2.332h0.99l-2.521,7.415h-1.156l-2.528-7.415h1.021l0.792,2.332H471.495z
	 M469.064,328.794l0.726,2.136c0.166,0.483,0.275,0.924,0.387,1.354h0.021c0.109-0.44,0.23-0.893,0.373-1.344l0.728-2.146H469.064
	L469.064,328.794z"/>
<path fill="#ED1C24" d="M461.847,327.166c0-0.55-0.012-1.034-0.045-1.452h0.857l0.057,0.869h0.021c0.253-0.431,0.814-0.99,1.76-0.99
	c0.836,0,1.839,0.462,1.839,2.332v3.113h-0.97v-2.947c0-1.013-0.308-1.694-1.188-1.694c-0.649,0-1.101,0.451-1.276,0.881
	c-0.056,0.143-0.088,0.317-0.088,0.494v3.268h-0.968L461.847,327.166L461.847,327.166z"/>
<path fill="#ED1C24" d="M455.766,333.523v-6.436c0-0.473-0.011-1.012-0.044-1.375h0.869l0.044,0.924h0.021
	c0.297-0.594,0.945-1.045,1.814-1.045c1.287,0,2.276,1.09,2.276,2.707c0.013,1.771-1.089,2.859-2.387,2.859
	c-0.813,0-1.364-0.385-1.605-0.812h-0.022v3.178H455.766z M456.733,328.871c0,0.121,0.012,0.286,0.045,0.406
	c0.144,0.617,0.67,1.123,1.396,1.123c1.002,0,1.596-0.881,1.596-2.059c0-1.078-0.528-1.969-1.573-1.969
	c-0.648,0-1.243,0.43-1.419,1.154c-0.033,0.133-0.045,0.265-0.045,0.419V328.871z"/>
<path fill="#ED1C24" d="M453.263,332.534c-0.012-0.33,0.229-0.595,0.615-0.595c0.342,0,0.584,0.265,0.584,0.595
	c0,0.342-0.255,0.604-0.605,0.604C453.492,333.141,453.263,332.876,453.263,332.534z M454.341,325.714v5.324h-0.97v-5.324H454.341z"
	/>
<path fill="#ED1C24" d="M447.089,328.421c0-1.97,1.362-2.828,2.65-2.828c1.44,0,2.552,1.058,2.552,2.739
	c0,1.782-1.165,2.827-2.641,2.827C448.121,331.159,447.089,330.048,447.089,328.421z M451.313,328.365
	c0-1.166-0.672-2.047-1.617-2.047c-0.924,0-1.617,0.869-1.617,2.068c0,0.902,0.451,2.047,1.596,2.047
	C450.818,330.434,451.313,329.378,451.313,328.365z"/>
<path fill="#ED1C24" d="M456.566,318.499c0-2.554,1.552-3.906,3.443-3.906c1.958,0,3.333,1.519,3.333,3.763
	c0,2.354-1.463,3.896-3.443,3.896C457.876,322.25,456.566,320.698,456.566,318.499z M462.319,318.378
	c0-1.585-0.856-3.004-2.365-3.004c-1.518,0-2.376,1.396-2.376,3.08c0,1.475,0.771,3.015,2.366,3.015
	C461.528,321.469,462.319,320.006,462.319,318.378z"/>
<path fill="#ED1C24" d="M450.966,316.166c0-0.55-0.011-1.034-0.043-1.452h0.856l0.056,0.869h0.021
	c0.253-0.431,0.813-0.99,1.761-0.99c0.836,0,1.837,0.462,1.837,2.332v3.113h-0.968v-2.947c0-1.013-0.309-1.694-1.188-1.694
	c-0.649,0-1.102,0.451-1.276,0.881c-0.055,0.143-0.088,0.317-0.088,0.494v3.268h-0.969V316.166z"/>
<path fill="#ED1C24" d="M448.343,321.314v-1.276h-1.387v-0.736h1.387v-2.87c0-0.66-0.188-1.035-0.727-1.035
	c-0.265,0-0.418,0.021-0.562,0.065l-0.043-0.728c0.187-0.075,0.482-0.143,0.856-0.143c0.451,0,0.814,0.154,1.045,0.418
	c0.275,0.286,0.375,0.76,0.375,1.387v2.904h0.824v0.736h-0.824v0.979L448.343,321.314z"/>
<circle fill="none" stroke="#000000" stroke-miterlimit="2.6131" cx="430.727" cy="324.004" r="9.921"/>
<circle fill="none" stroke="#000000" stroke-miterlimit="2.6131" cx="377.372" cy="329.106" r="14.882"/>
<path fill="none" stroke="#000000" d="M505.065,260.719c0,1.565-1.27,2.835-2.834,2.835h-54.568v5.669
	c0,1.565-1.27,2.835-2.834,2.835h-28.346c-1.566,0-2.836-1.27-2.836-2.835v-5.669h-66.613v5.669c0,1.565-1.27,2.835-2.834,2.835
	h-28.348c-1.564,0-2.834-1.27-2.834-2.835v-5.669h-54.565c-1.566,0-2.837-1.27-2.837-2.835V106.23c0-1.564,1.271-2.834,2.837-2.834
	h54.565v-5.67c0-1.564,1.27-2.834,2.834-2.834h28.348c1.564,0,2.834,1.27,2.834,2.834v5.67h66.613v-5.67
	c0-1.564,1.271-2.834,2.836-2.834h28.346c1.564,0,2.834,1.27,2.834,2.834v5.67h54.568c1.564,0,2.834,1.27,2.834,2.834V260.719
	L505.065,260.719z"/>
<rect x="291.644" y="7.586" fill="none" stroke="#000000" width="9.014" height="22.678"/>
<rect x="291.644" y="59.459" fill="none" stroke="#000000" width="9.014" height="22.678"/>
<rect x="460.023" y="7.586" fill="none" stroke="#000000" width="9.015" height="22.678"/>
<rect x="460.023" y="59.459" fill="none" stroke="#000000" width="9.015" height="22.678"/>
<path fill="none" stroke="#000000" d="M284.812,9.004c0-4.697,3.81-8.504,8.504-8.504h174.049c4.695,0,8.504,3.807,8.504,8.504
	v73.133c0,7.828-6.346,14.173-14.174,14.173c-5.243,0-9.81-2.854-12.262-7.086H311.247c-2.45,4.232-7.018,7.086-12.262,7.086
	c-7.827,0-14.174-6.345-14.174-14.173V9.004L284.812,9.004z"/>
<path fill="none" stroke="#000000" d="M330.734,64.705l0.709-0.709h20.269c1.565,0,2.834-1.27,2.834-2.835V22.894
	c0-1.565-1.269-2.835-2.834-2.835h-43.938c-1.563,0-2.834,1.27-2.834,2.835v38.268c0,1.565,1.271,2.835,2.834,2.835h20.271
	l0.709,0.709"/>
<path fill="none" stroke="#000000" stroke-miterlimit="2.6131" d="M367.303,20.059c0-1.565,1.27-2.835,2.835-2.835h38.267
	c1.566,0,2.835,1.27,2.835,2.835v41.103c0,1.565-1.269,2.835-2.835,2.835h-38.267c-1.565,0-2.835-1.27-2.835-2.835V20.059z"/>
<path fill="#ED1C24" d="M311.231,77.095V69.68h1.045l2.377,3.751c0.55,0.869,0.979,1.65,1.331,2.41l0.021-0.012
	c-0.089-0.99-0.109-1.892-0.109-3.047V69.68h0.902v7.415h-0.97l-2.354-3.763c-0.518-0.825-1.012-1.672-1.386-2.476l-0.033,0.012
	c0.055,0.935,0.077,1.826,0.077,3.059v3.168H311.231z"/>
<path fill="#ED1C24" d="M318.89,74.608c0.021,1.309,0.857,1.848,1.826,1.848c0.692,0,1.11-0.121,1.475-0.274l0.165,0.692
	c-0.341,0.154-0.924,0.342-1.771,0.342c-1.64,0-2.618-1.09-2.618-2.695c0-1.606,0.945-2.871,2.497-2.871
	c1.737,0,2.2,1.529,2.2,2.508c0,0.198-0.021,0.352-0.032,0.451L318.89,74.608L318.89,74.608z M321.729,73.915
	c0.011-0.615-0.253-1.573-1.342-1.573c-0.979,0-1.408,0.902-1.485,1.573H321.729z"/>
<path fill="#ED1C24" d="M324.918,70.493v1.277h1.386v0.736h-1.386v2.871c0,0.66,0.187,1.035,0.726,1.035
	c0.264,0,0.418-0.022,0.562-0.066l0.045,0.727c-0.188,0.076-0.484,0.143-0.858,0.143c-0.451,0-0.814-0.154-1.045-0.418
	c-0.275-0.286-0.374-0.76-0.374-1.387v-2.904h-0.825v-0.736h0.825v-0.979L324.918,70.493z"/>
<path fill="#ED1C24" d="M327.879,71.771l0.703,2.706c0.153,0.594,0.298,1.144,0.396,1.694h0.033
	c0.121-0.539,0.297-1.111,0.473-1.694l0.869-2.706h0.814l0.824,2.662c0.198,0.638,0.354,1.199,0.474,1.738h0.032
	c0.089-0.539,0.231-1.101,0.407-1.728l0.759-2.673h0.958l-1.717,5.324h-0.88l-0.813-2.541c-0.188-0.594-0.342-1.123-0.474-1.75
	h-0.021c-0.132,0.639-0.297,1.188-0.483,1.761l-0.858,2.53h-0.88l-1.605-5.324L327.879,71.771L327.879,71.771z"/>
<path fill="#ED1C24" d="M340.185,74.388c0,1.97-1.364,2.828-2.651,2.828c-1.44,0-2.553-1.057-2.553-2.739
	c0-1.782,1.166-2.827,2.641-2.827C339.15,71.649,340.185,72.761,340.185,74.388z M335.96,74.443c0,1.166,0.671,2.046,1.616,2.046
	c0.925,0,1.617-0.869,1.617-2.068c0-0.902-0.451-2.046-1.596-2.046C336.454,72.375,335.96,73.431,335.96,74.443z"/>
<path fill="#ED1C24" d="M341.275,73.431c0-0.627-0.011-1.166-0.044-1.66h0.848l0.033,1.045h0.044
	c0.241-0.715,0.825-1.166,1.475-1.166c0.109,0,0.188,0.011,0.274,0.033v0.912c-0.1-0.021-0.198-0.033-0.33-0.033
	c-0.683,0-1.166,0.518-1.298,1.244c-0.021,0.132-0.044,0.285-0.044,0.451v2.838h-0.958V73.431L341.275,73.431z"/>
<path fill="#ED1C24" d="M345.692,74.212h0.021c0.132-0.187,0.318-0.418,0.473-0.604l1.562-1.837h1.166l-2.057,2.189l2.343,3.135
	h-1.177l-1.838-2.553l-0.494,0.551v2.002h-0.958v-7.811h0.958L345.692,74.212L345.692,74.212z"/>
<path fill="#ED1C24" d="M382.072,69.68v4.39c0,1.661,0.737,2.365,1.729,2.365c1.101,0,1.805-0.727,1.805-2.365v-4.39h0.968v4.323
	c0,2.277-1.199,3.213-2.806,3.213c-1.519,0-2.662-0.869-2.662-3.168V69.68H382.072z"/>
<path fill="#ED1C24" d="M387.823,75.929c0.43,0.264,1.058,0.484,1.716,0.484c0.979,0,1.553-0.518,1.553-1.266
	c0-0.693-0.396-1.09-1.397-1.475c-1.21-0.429-1.958-1.056-1.958-2.102c0-1.154,0.957-2.013,2.398-2.013
	c0.759,0,1.309,0.177,1.639,0.363l-0.264,0.78c-0.242-0.131-0.737-0.352-1.408-0.352c-1.012,0-1.397,0.605-1.397,1.111
	c0,0.693,0.451,1.034,1.476,1.43c1.254,0.484,1.893,1.09,1.893,2.179c0,1.145-0.848,2.146-2.597,2.146
	c-0.715,0-1.496-0.221-1.893-0.484L387.823,75.929z"/>
<path fill="#ED1C24" d="M393.136,69.778c0.418-0.088,1.078-0.154,1.749-0.154c0.958,0,1.572,0.166,2.036,0.539
	c0.385,0.287,0.614,0.727,0.614,1.311c0,0.715-0.473,1.342-1.254,1.627v0.022c0.704,0.177,1.529,0.759,1.529,1.859
	c0,0.638-0.253,1.122-0.627,1.485c-0.519,0.473-1.354,0.693-2.563,0.693c-0.659,0-1.166-0.045-1.484-0.088V69.778z M394.093,76.368
	c0.188,0.033,0.462,0.045,0.804,0.045c0.99,0,1.903-0.363,1.903-1.441c0-1.012-0.869-1.431-1.915-1.431h-0.792V76.368z
	 M394.093,72.815h0.869c1.013,0,1.605-0.528,1.605-1.244c0-0.869-0.66-1.209-1.628-1.209c-0.44,0-0.693,0.032-0.848,0.065
	L394.093,72.815L394.093,72.815z"/>
<path fill="none" stroke="#000000" d="M328.752,59.744l-0.709,0.708h-9.64c-1.565,0-2.836-1.269-2.836-2.834v-1.805
	c0-0.843,0.377-1.643,1.025-2.182c1.133-0.939,1.811-2.364,1.811-3.809c0-2.735-2.227-4.961-4.961-4.961h-0.709
	c-1.563,0-2.834-1.27-2.834-2.834v-15.59c0-1.564,1.271-2.834,2.834-2.834h34.016c1.566,0,2.837,1.27,2.837,2.834v15.592
	c0,1.564-1.271,2.834-2.837,2.834h-0.709c-2.733,0-4.959,2.226-4.959,4.961c0,1.444,0.677,2.869,1.81,3.809
	c0.649,0.539,1.024,1.339,1.024,2.182v1.805c0,1.565-1.27,2.834-2.834,2.834h-9.639l-0.709-0.708"/>
<rect x="204.906" y="340.941" fill="none" stroke="#000000" width="9.015" height="22.678"/>
<rect x="204.906" y="289.066" fill="none" stroke="#000000" width="9.015" height="22.678"/>
<rect x="36.526" y="340.941" fill="none" stroke="#000000" width="9.015" height="22.678"/>
<rect x="36.526" y="289.066" fill="none" stroke="#000000" width="9.015" height="22.678"/>
<path fill="none" stroke="#000000" d="M220.751,362.199c0,4.697-3.81,8.504-8.504,8.504H38.199c-4.695,0-8.505-3.807-8.505-8.504
	v-73.133c0-7.828,6.347-14.174,14.175-14.174c5.241,0,9.809,2.854,12.262,7.086h138.185c2.453-4.232,7.021-7.086,12.263-7.086
	c7.827,0,14.174,6.346,14.174,14.174L220.751,362.199L220.751,362.199z"/>
<path fill="none" stroke="#000000" d="M169.444,304.656c0,1.564-1.27,2.834-2.834,2.834H95.742c-1.564,0-2.834-1.27-2.834-2.834
	v-4.252c0-1.564,1.27-2.834,2.834-2.834h70.867c1.564,0,2.834,1.27,2.834,2.834V304.656L169.444,304.656z"/>
<path fill="#ED1C24" d="M80.776,340.055c-0.462,0.076-1.066,0.145-1.838,0.145c-0.944,0-1.639-0.221-2.079-0.617
	c-0.406-0.352-0.647-0.891-0.647-1.551c0-0.672,0.197-1.199,0.571-1.584c0.507-0.539,1.331-0.814,2.267-0.814
	c0.286,0,0.55,0.012,0.771,0.066v-2.971h0.957L80.776,340.055L80.776,340.055z M79.819,336.48c-0.209-0.057-0.474-0.078-0.792-0.078
	c-1.154,0-1.858,0.561-1.858,1.584c0,0.979,0.691,1.453,1.749,1.453c0.418,0,0.736-0.033,0.901-0.078V336.48z"/>
<path fill="#ED1C24" d="M70.486,335.436c0-1.971,1.364-2.828,2.651-2.828c1.441,0,2.553,1.057,2.553,2.738
	c0,1.781-1.166,2.826-2.641,2.826C71.521,338.172,70.486,337.062,70.486,335.436z M74.711,335.379c0-1.166-0.671-2.047-1.617-2.047
	c-0.924,0-1.617,0.869-1.617,2.068c0,0.902,0.451,2.047,1.597,2.047C74.216,337.447,74.711,336.393,74.711,335.379z"/>
<path fill="#ED1C24" d="M69.12,338.051l-0.704-2.705c-0.153-0.594-0.297-1.145-0.396-1.693h-0.033
	c-0.12,0.539-0.297,1.109-0.473,1.693l-0.869,2.705h-0.813l-0.825-2.66c-0.198-0.639-0.354-1.199-0.473-1.738H64.5
	c-0.088,0.539-0.231,1.1-0.407,1.727l-0.759,2.674h-0.958l1.717-5.324h0.88l0.814,2.541c0.187,0.594,0.341,1.123,0.473,1.75h0.022
	c0.132-0.639,0.297-1.188,0.482-1.762l0.858-2.529h0.88l1.605,5.324H69.12V338.051z"/>
<path fill="#ED1C24" d="M61.096,335.213c-0.021-1.309-0.858-1.848-1.826-1.848c-0.692,0-1.11,0.121-1.475,0.273l-0.165-0.691
	c0.341-0.154,0.924-0.342,1.771-0.342c1.64,0,2.618,1.09,2.618,2.695s-0.945,2.871-2.497,2.871c-1.737,0-2.201-1.529-2.201-2.508
	c0-0.199,0.022-0.352,0.033-0.451H61.096L61.096,335.213z M58.257,335.906c-0.011,0.615,0.253,1.574,1.342,1.574
	c0.979,0,1.408-0.902,1.485-1.574H58.257z"/>
<path fill="#ED1C24" d="M56.261,336.393c0,0.627,0.011,1.166,0.044,1.658h-0.848l-0.033-1.045H55.38
	c-0.241,0.715-0.825,1.166-1.475,1.166c-0.109,0-0.188-0.01-0.274-0.033v-0.91c0.1,0.02,0.198,0.031,0.33,0.031
	c0.683,0,1.166-0.518,1.298-1.242c0.021-0.133,0.044-0.285,0.044-0.451v-2.838h0.958V336.393z"/>
<path fill="#ED1C24" d="M148.28,314.33c-0.43-0.264-1.057-0.484-1.717-0.484c-0.979,0-1.551,0.52-1.551,1.268
	c0,0.691,0.396,1.09,1.396,1.475c1.211,0.428,1.959,1.057,1.959,2.102c0,1.154-0.957,2.014-2.398,2.014
	c-0.76,0-1.31-0.178-1.64-0.363l0.265-0.779c0.242,0.131,0.736,0.352,1.408,0.352c1.012,0,1.396-0.605,1.396-1.111
	c0-0.693-0.451-1.035-1.475-1.43c-1.254-0.484-1.893-1.09-1.893-2.18c0-1.145,0.848-2.146,2.598-2.146
	c0.715,0,1.496,0.223,1.893,0.484L148.28,314.33z"/>
<path fill="#ED1C24" d="M142.968,320.482c-0.584,0.088-1.277,0.152-2.036,0.152c-1.375,0-2.354-0.318-3.003-0.924
	c-0.66-0.604-1.045-1.465-1.045-2.662c0-1.211,0.373-2.201,1.066-2.883c0.692-0.691,1.838-1.066,3.278-1.066
	c0.683,0,1.254,0.031,1.738,0.088L142.968,320.482L142.968,320.482z M142.01,313.924c-0.241-0.045-0.594-0.055-0.968-0.055
	c-2.047,0-3.158,1.143-3.158,3.145c-0.01,1.75,0.979,2.861,3.004,2.861c0.495,0,0.869-0.045,1.122-0.1V313.924L142.01,313.924z"/>
<path fill="#ED1C24" d="M128.347,313.406c0.354-0.176,1.057-0.363,1.959-0.363c2.09,0,3.664,1.332,3.664,3.764
	c0,2.32-1.574,3.895-3.873,3.895c-0.924,0-1.508-0.197-1.76-0.33l0.229-0.781c0.363,0.178,0.881,0.309,1.496,0.309
	c1.738,0,2.895-1.111,2.895-3.059c0-1.814-1.045-2.98-2.851-2.98c-0.583,0-1.177,0.121-1.562,0.309L128.347,313.406z"/>
<path fill="#ED1C24" d="M123.568,314.441c0-0.461-0.021-0.912-0.089-1.275h0.881l0.077,0.67h0.032
	c0.298-0.418,0.869-0.791,1.629-0.791c1.078,0,1.628,0.76,1.628,1.529c0,1.287-1.144,1.99-3.201,1.979v0.109
	c0,0.441,0.121,1.232,1.21,1.232c0.495,0,1.013-0.154,1.388-0.396l0.22,0.639c-0.44,0.287-1.078,0.475-1.749,0.475
	c-1.629,0-2.024-1.111-2.024-2.18L123.568,314.441L123.568,314.441z M124.503,315.881c1.057,0.023,2.256-0.164,2.256-1.199
	c0-0.627-0.418-0.924-0.913-0.924c-0.693,0-1.134,0.441-1.288,0.893c-0.032,0.1-0.055,0.209-0.055,0.309V315.881z"/>
<path fill="#ED1C24" d="M122.188,316.828c0,0.627,0.012,1.166,0.044,1.66h-0.848l-0.032-1.045h-0.044
	c-0.242,0.715-0.825,1.166-1.475,1.166c-0.109,0-0.188-0.012-0.275-0.033v-0.912c0.101,0.021,0.199,0.033,0.33,0.033
	c0.683,0,1.167-0.518,1.299-1.244c0.021-0.131,0.044-0.285,0.044-0.451v-2.838h0.957V316.828z"/>
<path fill="#ED1C24" d="M114.172,320.977v-6.438c0-0.473-0.011-1.012-0.044-1.375h0.869l0.044,0.924h0.021
	c0.297-0.594,0.945-1.045,1.814-1.045c1.287,0,2.276,1.09,2.276,2.707c0.013,1.771-1.089,2.859-2.387,2.859
	c-0.813,0-1.364-0.385-1.605-0.812h-0.022v3.18H114.172z M115.14,316.322c0,0.121,0.012,0.285,0.045,0.406
	c0.144,0.615,0.67,1.123,1.396,1.123c1.002,0,1.596-0.881,1.596-2.059c0-1.078-0.528-1.969-1.573-1.969
	c-0.648,0-1.243,0.43-1.419,1.154c-0.033,0.133-0.045,0.264-0.045,0.418V316.322z"/>
<path fill="none" stroke="#000000" d="M56.199,327.051c-3.132,0-5.671-2.539-5.671-5.67v-14.172c0-3.13,2.539-5.669,5.671-5.669
	h22.678c3.131,0,5.668,2.539,5.668,5.669v14.172c0,3.131-2.537,5.67-5.668,5.67H56.199z"/>
<path fill="#ED1C24" d="M32.531,396.113c-0.372,0.192-1.151,0.385-2.136,0.385c-2.278,0-3.981-1.439-3.981-4.102
	c0-2.543,1.715-4.246,4.222-4.246c0.996,0,1.644,0.215,1.919,0.359l-0.264,0.852c-0.384-0.191-0.948-0.336-1.619-0.336
	c-1.895,0-3.154,1.211-3.154,3.334c0,1.991,1.14,3.25,3.095,3.25c0.647,0,1.295-0.132,1.715-0.336L32.531,396.113z"/>
<path fill="#ED1C24" d="M33.782,392.373c0-0.684-0.013-1.271-0.048-1.811h0.923l0.048,1.15h0.036
	c0.264-0.78,0.912-1.271,1.619-1.271c0.107,0,0.191,0.012,0.288,0.024v0.996c-0.108-0.024-0.217-0.024-0.36-0.024
	c-0.744,0-1.271,0.553-1.416,1.344c-0.024,0.144-0.036,0.324-0.036,0.492v3.094h-1.056v-3.994H33.782z"/>
<path fill="#ED1C24" d="M38.174,393.656c0.024,1.427,0.923,2.015,1.991,2.015c0.755,0,1.223-0.132,1.606-0.3l0.192,0.756
	c-0.372,0.168-1.019,0.372-1.943,0.372c-1.786,0-2.854-1.188-2.854-2.938s1.032-3.117,2.723-3.117c1.907,0,2.399,1.654,2.399,2.723
	c0,0.216-0.012,0.372-0.036,0.492h-4.079V393.656z M41.268,392.9c0.013-0.66-0.275-1.703-1.463-1.703
	c-1.079,0-1.535,0.971-1.619,1.703H41.268z"/>
<path fill="#ED1C24" d="M47.675,394.975c0,0.503,0.024,0.995,0.084,1.391h-0.947l-0.084-0.73h-0.035
	c-0.324,0.456-0.947,0.863-1.775,0.863c-1.175,0-1.775-0.828-1.775-1.667c0-1.403,1.247-2.171,3.49-2.159v-0.12
	c0-0.468-0.132-1.343-1.319-1.331c-0.551,0-1.114,0.156-1.522,0.432l-0.24-0.707c0.479-0.301,1.188-0.504,1.919-0.504
	c1.775,0,2.207,1.211,2.207,2.362L47.675,394.975L47.675,394.975z M46.656,393.404c-1.151-0.024-2.459,0.18-2.459,1.307
	c0,0.695,0.456,1.008,0.982,1.008c0.769,0,1.26-0.48,1.428-0.972c0.035-0.12,0.048-0.24,0.048-0.337L46.656,393.404L46.656,393.404z
	"/>
<path fill="#ED1C24" d="M50.605,389.17v1.393h1.512v0.803h-1.512v3.129c0,0.721,0.204,1.128,0.792,1.128
	c0.288,0,0.456-0.024,0.611-0.072l0.048,0.803c-0.204,0.072-0.527,0.145-0.936,0.145c-0.492,0-0.888-0.169-1.141-0.444
	c-0.287-0.324-0.407-0.839-0.407-1.523v-3.166h-0.899v-0.804h0.899v-1.079L50.605,389.17z"/>
<path fill="#ED1C24" d="M54.482,388.93c0,0.36-0.253,0.648-0.672,0.648c-0.384,0-0.636-0.288-0.636-0.648
	c0-0.359,0.264-0.66,0.66-0.66C54.217,388.271,54.482,388.559,54.482,388.93z M53.305,396.365v-5.805h1.057v5.805H53.305z"/>
<path fill="#ED1C24" d="M56.521,390.562l1.141,3.25c0.191,0.539,0.348,1.02,0.468,1.498h0.036c0.132-0.479,0.3-0.959,0.492-1.498
	l1.127-3.25h1.104l-2.278,5.805h-1.008l-2.207-5.805H56.521z"/>
<path fill="#ED1C24" d="M62.353,393.656c0.024,1.427,0.924,2.015,1.991,2.015c0.755,0,1.224-0.132,1.607-0.3l0.191,0.756
	c-0.372,0.168-1.019,0.372-1.942,0.372c-1.787,0-2.854-1.188-2.854-2.938s1.032-3.117,2.724-3.117c1.906,0,2.398,1.654,2.398,2.723
	c0,0.216-0.012,0.372-0.036,0.492h-4.079V393.656z M65.448,392.9c0.012-0.66-0.276-1.703-1.463-1.703
	c-1.079,0-1.535,0.971-1.619,1.703H65.448z"/>
<path fill="#ED1C24" d="M75.994,396.113c-0.372,0.192-1.151,0.385-2.135,0.385c-2.279,0-3.982-1.439-3.982-4.102
	c0-2.543,1.715-4.246,4.222-4.246c0.996,0,1.644,0.215,1.919,0.359l-0.264,0.852c-0.384-0.191-0.948-0.336-1.619-0.336
	c-1.895,0-3.153,1.211-3.153,3.334c0,1.991,1.139,3.25,3.094,3.25c0.646,0,1.295-0.132,1.715-0.336L75.994,396.113z"/>
<path fill="#ED1C24" d="M82.403,393.416c0,2.146-1.499,3.082-2.891,3.082c-1.559,0-2.783-1.151-2.783-2.986
	c0-1.931,1.284-3.07,2.879-3.07C81.276,390.441,82.403,391.652,82.403,393.416z M77.809,393.476c0,1.271,0.721,2.231,1.751,2.231
	c1.008,0,1.764-0.947,1.764-2.256c0-0.982-0.492-2.219-1.739-2.219C78.348,391.232,77.809,392.384,77.809,393.476z"/>
<path fill="#ED1C24" d="M83.738,392.133c0-0.611-0.024-1.091-0.049-1.57h0.924l0.048,0.946h0.036
	c0.323-0.552,0.863-1.067,1.835-1.067c0.779,0,1.379,0.48,1.631,1.164h0.023c0.181-0.336,0.419-0.576,0.66-0.756
	c0.349-0.264,0.72-0.408,1.271-0.408c0.779,0,1.919,0.504,1.919,2.52v3.406h-1.031v-3.274c0-1.127-0.42-1.787-1.259-1.787
	c-0.612,0-1.067,0.443-1.259,0.947c-0.049,0.155-0.084,0.336-0.084,0.528v3.586h-1.032v-3.479c0-0.923-0.408-1.583-1.211-1.583
	c-0.648,0-1.141,0.527-1.309,1.056c-0.06,0.144-0.084,0.336-0.084,0.516v3.49h-1.03V392.133z"/>
<path fill="#ED1C24" d="M93.745,392.133c0-0.611-0.024-1.091-0.048-1.57h0.923l0.048,0.946h0.036
	c0.324-0.552,0.864-1.067,1.835-1.067c0.78,0,1.379,0.48,1.631,1.164h0.024c0.18-0.336,0.419-0.576,0.659-0.756
	c0.349-0.264,0.72-0.408,1.271-0.408c0.78,0,1.919,0.504,1.919,2.52v3.406h-1.031v-3.274c0-1.127-0.42-1.787-1.259-1.787
	c-0.612,0-1.067,0.443-1.259,0.947c-0.048,0.155-0.084,0.336-0.084,0.528v3.586h-1.032v-3.479c0-0.923-0.408-1.583-1.211-1.583
	c-0.648,0-1.14,0.527-1.308,1.056c-0.061,0.144-0.084,0.336-0.084,0.516v3.49h-1.031V392.133z"/>
<path fill="#ED1C24" d="M109.006,393.416c0,2.146-1.499,3.082-2.89,3.082c-1.56,0-2.783-1.151-2.783-2.986
	c0-1.931,1.284-3.07,2.878-3.07C107.879,390.441,109.006,391.652,109.006,393.416z M104.413,393.476c0,1.271,0.72,2.231,1.751,2.231
	c1.007,0,1.763-0.947,1.763-2.256c0-0.982-0.492-2.219-1.739-2.219C104.952,391.232,104.413,392.384,104.413,393.476z"/>
<path fill="#ED1C24" d="M110.341,392.133c0-0.611-0.012-1.091-0.048-1.57h0.936l0.061,0.959h0.023c0.288-0.541,0.959-1.08,1.92-1.08
	c0.803,0,2.051,0.479,2.051,2.471v3.453h-1.057v-3.346c0-0.936-0.348-1.715-1.343-1.715c-0.684,0-1.223,0.492-1.415,1.079
	c-0.048,0.132-0.072,0.312-0.072,0.492v3.489h-1.056V392.133z"/>
<path fill="#ED1C24" d="M116.858,395.299c0.323,0.191,0.875,0.408,1.402,0.408c0.756,0,1.115-0.372,1.115-0.863
	c0-0.504-0.3-0.768-1.067-1.056c-1.055-0.384-1.547-0.947-1.547-1.644c0-0.936,0.769-1.703,2.003-1.703
	c0.587,0,1.104,0.156,1.415,0.36l-0.252,0.769c-0.228-0.145-0.646-0.349-1.187-0.349c-0.624,0-0.959,0.36-0.959,0.792
	c0,0.479,0.335,0.695,1.091,0.995c0.995,0.372,1.522,0.876,1.522,1.739c0,1.031-0.803,1.751-2.158,1.751
	c-0.637,0-1.224-0.168-1.632-0.408L116.858,395.299z"/>
<path fill="#ED1C24" d="M123.961,396.365v-0.646l0.828-0.804c1.991-1.896,2.902-2.902,2.902-4.078c0-0.792-0.372-1.522-1.535-1.522
	c-0.708,0-1.295,0.359-1.655,0.659l-0.336-0.743c0.528-0.445,1.307-0.793,2.195-0.793c1.679,0,2.387,1.151,2.387,2.268
	c0,1.438-1.043,2.603-2.688,4.186l-0.611,0.576v0.023h3.489v0.875H123.961L123.961,396.365z"/>
<path fill="#ED1C24" d="M130.2,395.742c0-0.432,0.3-0.756,0.72-0.756s0.708,0.312,0.708,0.756c0,0.433-0.288,0.756-0.731,0.756
	C130.49,396.498,130.2,396.175,130.2,395.742z"/>
<path fill="#ED1C24" d="M137.254,389.458h-2.975l-0.301,2.003c0.181-0.023,0.349-0.036,0.637-0.036c0.611,0,1.198,0.12,1.679,0.42
	c0.611,0.336,1.115,1.021,1.115,1.991c0,1.523-1.211,2.663-2.902,2.663c-0.852,0-1.559-0.24-1.943-0.479l0.265-0.804
	c0.324,0.192,0.959,0.433,1.679,0.433c0.983,0,1.847-0.647,1.835-1.691c0-1.008-0.684-1.715-2.23-1.715
	c-0.456,0-0.804,0.035-1.092,0.072l0.505-3.742h3.729V389.458z"/>
<path fill="#ED1C24" d="M138.408,397.854c0.264-0.72,0.588-2.003,0.72-2.878l1.175-0.12c-0.288,1.021-0.814,2.352-1.15,2.916
	L138.408,397.854z"/>
<path fill="#ED1C24" d="M145.463,393.824l-0.839,2.541h-1.08l2.758-8.082h1.248l2.758,8.082h-1.114l-0.863-2.541H145.463z
	 M148.126,393.008l-0.804-2.327c-0.181-0.526-0.301-1.007-0.419-1.475h-0.024c-0.12,0.468-0.24,0.972-0.408,1.463l-0.792,2.338
	L148.126,393.008L148.126,393.008z"/>
<path fill="#ED1C24" d="M152.616,389.17v1.393h1.511v0.803h-1.511v3.129c0,0.721,0.204,1.128,0.792,1.128
	c0.288,0,0.456-0.024,0.61-0.072l0.049,0.803c-0.204,0.072-0.528,0.145-0.937,0.145c-0.492,0-0.888-0.169-1.14-0.444
	c-0.288-0.324-0.408-0.839-0.408-1.523v-3.166h-0.899v-0.804h0.899v-1.079L152.616,389.17z"/>
<path fill="#ED1C24" d="M156.587,389.17v1.393h1.511v0.803h-1.511v3.129c0,0.721,0.204,1.128,0.792,1.128
	c0.288,0,0.456-0.024,0.611-0.072l0.048,0.803c-0.204,0.072-0.528,0.145-0.937,0.145c-0.491,0-0.888-0.169-1.14-0.444
	c-0.288-0.324-0.408-0.839-0.408-1.523v-3.166h-0.898v-0.804h0.898v-1.079L156.587,389.17z"/>
<path fill="#ED1C24" d="M159.288,392.373c0-0.684-0.012-1.271-0.048-1.811h0.923l0.048,1.15h0.036
	c0.264-0.78,0.912-1.271,1.619-1.271c0.107,0,0.191,0.012,0.288,0.024v0.996c-0.108-0.024-0.217-0.024-0.359-0.024
	c-0.744,0-1.271,0.553-1.416,1.344c-0.024,0.144-0.036,0.324-0.036,0.492v3.094h-1.056L159.288,392.373L159.288,392.373z"/>
<path fill="#ED1C24" d="M164.435,388.93c0,0.36-0.252,0.648-0.671,0.648c-0.384,0-0.636-0.288-0.636-0.648
	c0-0.359,0.264-0.66,0.66-0.66C164.171,388.271,164.435,388.559,164.435,388.93z M163.26,396.365v-5.805h1.057v5.805H163.26z"/>
<path fill="#ED1C24" d="M166.069,387.851h1.043v3.646h0.023c0.372-0.648,1.043-1.056,1.979-1.056c1.451,0,2.458,1.198,2.458,2.949
	c0,2.075-1.319,3.106-2.614,3.106c-0.84,0-1.511-0.324-1.955-1.079h-0.024l-0.06,0.947h-0.899c0.024-0.396,0.049-0.983,0.049-1.5
	V387.851z M167.112,394.04c0,0.132,0.012,0.264,0.048,0.384c0.191,0.73,0.814,1.234,1.583,1.234c1.116,0,1.763-0.898,1.763-2.23
	c0-1.163-0.6-2.159-1.739-2.159c-0.708,0-1.379,0.505-1.595,1.296c-0.036,0.131-0.06,0.275-0.06,0.442V394.04z"/>
<path fill="#ED1C24" d="M177.753,394.771c0,0.611,0.012,1.139,0.048,1.594h-0.936l-0.061-0.946h-0.023
	c-0.265,0.468-0.888,1.079-1.919,1.079c-0.911,0-2.003-0.516-2.003-2.542v-3.394h1.056v3.201c0,1.104,0.348,1.859,1.295,1.859
	c0.708,0,1.199-0.492,1.391-0.971c0.061-0.145,0.097-0.336,0.097-0.541v-3.549h1.056V394.771L177.753,394.771z"/>
<path fill="#ED1C24" d="M180.78,389.17v1.393h1.511v0.803h-1.511v3.129c0,0.721,0.204,1.128,0.792,1.128
	c0.288,0,0.456-0.024,0.611-0.072l0.049,0.803c-0.204,0.072-0.528,0.145-0.937,0.145c-0.492,0-0.888-0.169-1.14-0.444
	c-0.288-0.324-0.408-0.839-0.408-1.523v-3.166h-0.899v-0.804h0.899v-1.079L180.78,389.17z"/>
<path fill="#ED1C24" d="M184.656,388.93c0,0.36-0.252,0.648-0.671,0.648c-0.385,0-0.637-0.288-0.637-0.648
	c0-0.359,0.265-0.66,0.66-0.66C184.391,388.271,184.656,388.559,184.656,388.93z M183.479,396.365v-5.805h1.057v5.805H183.479z"/>
<path fill="#ED1C24" d="M191.54,393.416c0,2.146-1.499,3.082-2.89,3.082c-1.56,0-2.783-1.151-2.783-2.986
	c0-1.931,1.284-3.07,2.878-3.07C190.413,390.441,191.54,391.652,191.54,393.416z M186.948,393.476c0,1.271,0.72,2.231,1.751,2.231
	c1.007,0,1.763-0.947,1.763-2.256c0-0.982-0.492-2.219-1.739-2.219C187.488,391.232,186.948,392.384,186.948,393.476z"/>
<path fill="#ED1C24" d="M192.875,392.133c0-0.611-0.012-1.091-0.048-1.57h0.936l0.061,0.959h0.023
	c0.288-0.541,0.959-1.08,1.919-1.08c0.804,0,2.052,0.479,2.052,2.471v3.453h-1.057v-3.346c0-0.936-0.348-1.715-1.343-1.715
	c-0.684,0-1.223,0.492-1.415,1.079c-0.048,0.132-0.072,0.312-0.072,0.492v3.489h-1.056V392.133z"/>
<path fill="#ED1C24" d="M198.851,397.854c0.265-0.72,0.588-2.003,0.721-2.878l1.175-0.12c-0.288,1.021-0.815,2.352-1.151,2.916
	L198.851,397.854z"/>
<path fill="#ED1C24" d="M204.467,395.095c0.467,0.3,1.14,0.528,1.859,0.528c1.066,0,1.69-0.563,1.69-1.379
	c0-0.743-0.432-1.188-1.522-1.596c-1.319-0.479-2.135-1.176-2.135-2.303c0-1.259,1.043-2.195,2.613-2.195
	c0.815,0,1.428,0.192,1.775,0.396l-0.288,0.852c-0.252-0.156-0.792-0.384-1.523-0.384c-1.103,0-1.522,0.66-1.522,1.211
	c0,0.755,0.492,1.127,1.606,1.56c1.367,0.527,2.052,1.188,2.052,2.375c0,1.248-0.912,2.339-2.819,2.339
	c-0.779,0-1.631-0.24-2.062-0.528L204.467,395.095z"/>
<path fill="#ED1C24" d="M210.479,387.851h1.057v3.634h0.023c0.168-0.3,0.433-0.576,0.756-0.754c0.312-0.181,0.684-0.289,1.079-0.289
	c0.779,0,2.027,0.48,2.027,2.472v3.454h-1.056v-3.334c0-0.937-0.349-1.715-1.344-1.715c-0.684,0-1.211,0.479-1.414,1.043
	c-0.061,0.155-0.072,0.312-0.072,0.504v3.502h-1.057V387.851z"/>
<path fill="#ED1C24" d="M221.217,394.975c0,0.503,0.024,0.995,0.084,1.391h-0.947l-0.084-0.73h-0.035
	c-0.324,0.456-0.947,0.863-1.775,0.863c-1.175,0-1.775-0.828-1.775-1.667c0-1.403,1.247-2.171,3.49-2.159v-0.12
	c0-0.468-0.132-1.343-1.319-1.331c-0.552,0-1.115,0.156-1.522,0.432l-0.24-0.707c0.479-0.301,1.188-0.504,1.919-0.504
	c1.775,0,2.207,1.211,2.207,2.362L221.217,394.975L221.217,394.975z M220.198,393.404c-1.151-0.024-2.458,0.18-2.458,1.307
	c0,0.695,0.456,1.008,0.982,1.008c0.769,0,1.26-0.48,1.428-0.972c0.035-0.12,0.048-0.24,0.048-0.337V393.404L220.198,393.404z"/>
<path fill="#ED1C24" d="M222.923,392.373c0-0.684-0.012-1.271-0.048-1.811h0.923l0.048,1.15h0.036
	c0.264-0.78,0.912-1.271,1.619-1.271c0.108,0,0.192,0.012,0.288,0.024v0.996c-0.108-0.024-0.216-0.024-0.359-0.024
	c-0.744,0-1.271,0.553-1.416,1.344c-0.023,0.144-0.036,0.324-0.036,0.492v3.094h-1.056L222.923,392.373L222.923,392.373z"/>
<path fill="#ED1C24" d="M227.316,393.656c0.023,1.427,0.923,2.015,1.99,2.015c0.755,0,1.224-0.132,1.607-0.3l0.191,0.756
	c-0.371,0.168-1.019,0.372-1.942,0.372c-1.787,0-2.854-1.188-2.854-2.938s1.032-3.117,2.724-3.117c1.906,0,2.398,1.654,2.398,2.723
	c0,0.216-0.012,0.372-0.036,0.492h-4.078V393.656z M230.409,392.9c0.012-0.66-0.276-1.703-1.463-1.703
	c-1.08,0-1.535,0.971-1.619,1.703H230.409z"/>
<path fill="#ED1C24" d="M235.521,392.744v0.768h-2.962v-0.768H235.521z"/>
<path fill="#ED1C24" d="M240.836,394.975c0,0.503,0.024,0.995,0.084,1.391h-0.947l-0.084-0.73h-0.036
	c-0.323,0.456-0.946,0.863-1.774,0.863c-1.175,0-1.775-0.828-1.775-1.667c0-1.403,1.247-2.171,3.49-2.159v-0.12
	c0-0.468-0.132-1.343-1.319-1.331c-0.551,0-1.114,0.156-1.522,0.432l-0.24-0.707c0.479-0.301,1.188-0.504,1.919-0.504
	c1.775,0,2.207,1.211,2.207,2.362L240.836,394.975L240.836,394.975z M239.818,393.404c-1.151-0.024-2.459,0.18-2.459,1.307
	c0,0.695,0.455,1.008,0.982,1.008c0.769,0,1.259-0.48,1.427-0.972c0.036-0.12,0.049-0.24,0.049-0.337L239.818,393.404
	L239.818,393.404z"/>
<path fill="#ED1C24" d="M242.542,387.851h1.056v8.515h-1.056V387.851z"/>
<path fill="#ED1C24" d="M246.55,388.93c0,0.36-0.252,0.648-0.671,0.648c-0.384,0-0.636-0.288-0.636-0.648
	c0-0.359,0.264-0.66,0.66-0.66C246.286,388.271,246.55,388.559,246.55,388.93z M245.374,396.365v-5.805h1.056v5.805H245.374z"/>
<path fill="#ED1C24" d="M249.226,393.224h0.024c0.144-0.204,0.336-0.456,0.504-0.659l1.715-2.004h1.259l-2.229,2.387l2.554,3.418
	h-1.295l-1.991-2.781l-0.54,0.6v2.184h-1.043v-8.516h1.043V393.224L249.226,393.224z"/>
<path fill="#ED1C24" d="M254.399,393.656c0.023,1.427,0.923,2.015,1.99,2.015c0.755,0,1.224-0.132,1.607-0.3l0.191,0.756
	c-0.371,0.168-1.019,0.372-1.942,0.372c-1.787,0-2.854-1.188-2.854-2.938s1.032-3.117,2.724-3.117c1.906,0,2.398,1.654,2.398,2.723
	c0,0.216-0.012,0.372-0.036,0.492h-4.078V393.656z M257.492,392.9c0.012-0.66-0.276-1.703-1.463-1.703
	c-1.079,0-1.535,0.971-1.619,1.703H257.492z"/>
<path fill="#ED1C24" d="M26.894,402.803c0.637-0.107,1.392-0.18,2.22-0.18c1.499,0,2.565,0.359,3.273,1.007
	c0.732,0.66,1.151,1.595,1.151,2.901c0,1.319-0.419,2.399-1.163,3.144c-0.768,0.755-2.015,1.163-3.586,1.163
	c-0.756,0-1.367-0.036-1.896-0.096V402.803z M27.937,409.951c0.265,0.035,0.647,0.048,1.056,0.048c2.243,0,3.441-1.248,3.441-3.431
	c0.013-1.906-1.066-3.117-3.273-3.117c-0.54,0-0.947,0.048-1.224,0.107V409.951z"/>
<path fill="#ED1C24" d="M35.487,408.056c0.023,1.427,0.923,2.015,1.99,2.015c0.756,0,1.224-0.131,1.607-0.299l0.192,0.756
	c-0.372,0.168-1.02,0.371-1.943,0.371c-1.787,0-2.854-1.187-2.854-2.938s1.032-3.118,2.724-3.118c1.907,0,2.398,1.655,2.398,2.724
	c0,0.215-0.012,0.371-0.035,0.491h-4.079V408.056z M38.58,407.3c0.012-0.659-0.276-1.703-1.463-1.703
	c-1.08,0-1.535,0.972-1.619,1.703H38.58z"/>
<path fill="#ED1C24" d="M40.765,409.699c0.324,0.191,0.875,0.408,1.403,0.408c0.756,0,1.115-0.373,1.115-0.863
	c0-0.504-0.3-0.769-1.067-1.057c-1.055-0.384-1.547-0.947-1.547-1.643c0-0.936,0.768-1.703,2.003-1.703
	c0.587,0,1.104,0.156,1.415,0.359l-0.252,0.769c-0.228-0.144-0.647-0.348-1.187-0.348c-0.624,0-0.959,0.36-0.959,0.792
	c0,0.479,0.335,0.695,1.091,0.996c0.996,0.371,1.522,0.875,1.522,1.738c0,1.031-0.803,1.752-2.159,1.752
	c-0.636,0-1.223-0.168-1.631-0.408L40.765,409.699z"/>
<path fill="#ED1C24" d="M46.837,403.33c0,0.359-0.252,0.647-0.671,0.647c-0.384,0-0.636-0.288-0.636-0.647
	c0-0.36,0.264-0.66,0.66-0.66C46.573,402.671,46.837,402.959,46.837,403.33z M45.661,410.766v-5.805h1.056v5.805H45.661z"/>
<path fill="#ED1C24" d="M53.434,409.915c0,1.343-0.275,2.147-0.827,2.663c-0.576,0.516-1.392,0.695-2.123,0.695
	c-0.696,0-1.464-0.168-1.932-0.479l0.265-0.815c0.384,0.252,0.983,0.469,1.702,0.469c1.08,0,1.871-0.564,1.871-2.039v-0.637h-0.023
	c-0.312,0.54-0.948,0.973-1.848,0.973c-1.438,0-2.471-1.225-2.471-2.831c0-1.968,1.284-3.07,2.627-3.07
	c1.007,0,1.547,0.517,1.812,0.996h0.023l0.036-0.875h0.937c-0.036,0.408-0.049,0.887-0.049,1.583V409.915z M52.379,407.252
	c0-0.18-0.012-0.336-0.06-0.469c-0.192-0.623-0.696-1.127-1.477-1.127c-1.007,0-1.727,0.853-1.727,2.195
	c0,1.141,0.588,2.088,1.715,2.088c0.66,0,1.247-0.408,1.463-1.08c0.06-0.18,0.084-0.384,0.084-0.563L52.379,407.252L52.379,407.252z
	"/>
<path fill="#ED1C24" d="M55.105,406.531c0-0.61-0.012-1.09-0.048-1.57h0.937l0.06,0.959h0.024c0.288-0.54,0.959-1.08,1.919-1.08
	c0.803,0,2.051,0.48,2.051,2.471v3.454h-1.056v-3.346c0-0.937-0.349-1.716-1.343-1.716c-0.685,0-1.224,0.492-1.415,1.08
	c-0.049,0.132-0.072,0.312-0.072,0.492v3.489h-1.057V406.531z"/>
<path fill="#ED1C24" d="M62.353,408.056c0.024,1.427,0.924,2.015,1.991,2.015c0.755,0,1.224-0.131,1.607-0.299l0.191,0.756
	c-0.372,0.168-1.019,0.371-1.942,0.371c-1.787,0-2.854-1.187-2.854-2.938s1.032-3.118,2.724-3.118c1.906,0,2.398,1.655,2.398,2.724
	c0,0.215-0.012,0.371-0.036,0.491h-4.079V408.056z M65.448,407.3c0.012-0.659-0.276-1.703-1.463-1.703
	c-1.08,0-1.535,0.972-1.619,1.703H65.448z"/>
<path fill="#ED1C24" d="M72.78,402.251v7.016c0,0.517,0.023,1.103,0.048,1.499h-0.937l-0.048-1.007h-0.036
	c-0.312,0.647-1.007,1.14-1.955,1.14c-1.402,0-2.494-1.188-2.494-2.951c-0.013-1.931,1.199-3.105,2.603-3.105
	c0.9,0,1.487,0.42,1.751,0.875h0.024v-3.466H72.78z M71.736,407.324c0-0.133-0.013-0.312-0.049-0.444
	c-0.155-0.66-0.73-1.211-1.522-1.211c-1.091,0-1.739,0.959-1.739,2.231c0,1.174,0.588,2.146,1.715,2.146
	c0.708,0,1.355-0.479,1.547-1.259c0.036-0.145,0.049-0.288,0.049-0.456V407.324z"/>
<path fill="#ED1C24" d="M77.089,402.251h1.043v3.646h0.024c0.372-0.647,1.043-1.056,1.979-1.056c1.451,0,2.458,1.199,2.458,2.951
	c0,2.075-1.318,3.106-2.614,3.106c-0.84,0-1.511-0.324-1.954-1.08H78l-0.06,0.947h-0.899c0.024-0.396,0.048-0.982,0.048-1.499
	V402.251z M78.132,408.439c0,0.133,0.012,0.265,0.048,0.385c0.192,0.73,0.816,1.234,1.583,1.234c1.115,0,1.764-0.898,1.764-2.23
	c0-1.163-0.601-2.159-1.739-2.159c-0.708,0-1.379,0.504-1.595,1.295c-0.036,0.132-0.061,0.276-0.061,0.444V408.439z"/>
<path fill="#ED1C24" d="M84.217,404.962l1.259,3.43c0.145,0.384,0.288,0.839,0.385,1.187h0.023c0.108-0.348,0.229-0.791,0.372-1.211
	l1.151-3.405h1.114L86.94,409.1c-0.757,1.991-1.271,2.998-1.991,3.635c-0.527,0.443-1.031,0.623-1.295,0.672l-0.265-0.875
	c0.265-0.084,0.612-0.252,0.924-0.517c0.288-0.228,0.636-0.636,0.888-1.176c0.048-0.108,0.084-0.192,0.084-0.251
	c0-0.061-0.024-0.145-0.084-0.276l-2.135-5.349L84.217,404.962L84.217,404.962z"/>
<path fill="#ED1C24" d="M93.372,408.224l-0.839,2.542h-1.08l2.758-8.083h1.248l2.758,8.083h-1.115l-0.863-2.542H93.372z
	 M96.034,407.408l-0.805-2.327c-0.18-0.527-0.3-1.007-0.419-1.476h-0.023c-0.12,0.469-0.24,0.973-0.408,1.463l-0.792,2.34H96.034z"
	/>
<path fill="#ED1C24" d="M104.23,402.251v7.016c0,0.517,0.024,1.103,0.049,1.499h-0.937l-0.048-1.007h-0.036
	c-0.312,0.647-1.007,1.14-1.955,1.14c-1.402,0-2.495-1.188-2.495-2.951c-0.012-1.931,1.2-3.105,2.604-3.105
	c0.899,0,1.487,0.42,1.751,0.875h0.023v-3.466H104.23z M103.187,407.324c0-0.133-0.012-0.312-0.048-0.444
	c-0.155-0.66-0.73-1.211-1.522-1.211c-1.091,0-1.739,0.959-1.739,2.231c0,1.174,0.588,2.146,1.715,2.146
	c0.708,0,1.355-0.479,1.547-1.259c0.036-0.145,0.048-0.288,0.048-0.456V407.324z"/>
<path fill="#ED1C24" d="M110.074,409.375c0,0.503,0.023,0.994,0.084,1.391h-0.947l-0.084-0.73h-0.036
	c-0.324,0.455-0.947,0.863-1.774,0.863c-1.176,0-1.775-0.828-1.775-1.668c0-1.402,1.247-2.171,3.49-2.158v-0.121
	c0-0.467-0.132-1.342-1.319-1.33c-0.552,0-1.116,0.156-1.523,0.432l-0.239-0.708c0.479-0.3,1.187-0.504,1.919-0.504
	c1.774,0,2.207,1.211,2.207,2.363L110.074,409.375L110.074,409.375z M109.054,407.804c-1.15-0.024-2.458,0.181-2.458,1.308
	c0,0.695,0.456,1.008,0.983,1.008c0.768,0,1.259-0.48,1.427-0.973c0.036-0.119,0.048-0.24,0.048-0.336V407.804z"/>
<path fill="#ED1C24" d="M111.888,410.766v-5.001h-0.804v-0.803h0.804v-0.276c0-0.814,0.192-1.559,0.672-2.027
	c0.396-0.383,0.924-0.539,1.415-0.539c0.385,0,0.696,0.084,0.899,0.168l-0.145,0.815c-0.155-0.071-0.358-0.132-0.671-0.132
	c-0.898,0-1.127,0.78-1.127,1.68v0.312h1.403v0.803h-1.403v5.001H111.888z"/>
<path fill="#ED1C24" d="M115.284,406.773c0-0.685-0.013-1.271-0.048-1.812h0.923l0.048,1.151h0.036
	c0.264-0.78,0.912-1.271,1.619-1.271c0.107,0,0.191,0.012,0.288,0.023v0.996c-0.108-0.023-0.217-0.023-0.36-0.023
	c-0.744,0-1.271,0.552-1.416,1.343c-0.024,0.144-0.036,0.324-0.036,0.492v3.094h-1.056v-3.993H115.284z"/>
<path fill="#ED1C24" d="M124.067,409.171c0,0.612,0.012,1.14,0.048,1.595h-0.937l-0.06-0.947h-0.024
	c-0.264,0.467-0.887,1.08-1.919,1.08c-0.911,0-2.003-0.517-2.003-2.543v-3.394h1.056v3.202c0,1.104,0.349,1.859,1.296,1.859
	c0.708,0,1.198-0.492,1.391-0.972c0.06-0.144,0.096-0.336,0.096-0.54v-3.55h1.057V409.171z"/>
<path fill="#ED1C24" d="M126.996,403.33c0,0.359-0.252,0.647-0.671,0.647c-0.384,0-0.637-0.288-0.637-0.647
	c0-0.36,0.265-0.66,0.66-0.66C126.733,402.671,126.996,402.959,126.996,403.33z M125.822,410.766v-5.805h1.056v5.805H125.822z"/>
<path fill="#ED1C24" d="M129.901,403.57v1.392h1.511v0.803h-1.511v3.13c0,0.721,0.203,1.127,0.792,1.127
	c0.287,0,0.456-0.023,0.61-0.072l0.048,0.804c-0.204,0.071-0.527,0.144-0.936,0.144c-0.492,0-0.888-0.168-1.14-0.443
	c-0.288-0.324-0.408-0.84-0.408-1.523v-3.167h-0.899v-0.803h0.899v-1.08L129.901,403.57z"/>
<path fill="#ED1C24" d="M136.223,402.683v8.083h-1.056v-8.083H136.223z"/>
<path fill="#ED1C24" d="M138.132,406.531c0-0.61-0.012-1.09-0.048-1.57h0.936l0.061,0.959h0.023c0.288-0.54,0.959-1.08,1.92-1.08
	c0.803,0,2.051,0.48,2.051,2.471v3.454h-1.057v-3.346c0-0.937-0.348-1.716-1.343-1.716c-0.684,0-1.223,0.492-1.415,1.08
	c-0.048,0.132-0.072,0.312-0.072,0.492v3.489h-1.056V406.531z"/>
<path fill="#ED1C24" d="M149.793,402.251v7.016c0,0.517,0.024,1.103,0.048,1.499h-0.936l-0.048-1.007h-0.036
	c-0.312,0.647-1.008,1.14-1.955,1.14c-1.403,0-2.495-1.188-2.495-2.951c-0.012-1.931,1.2-3.105,2.603-3.105
	c0.9,0,1.487,0.42,1.751,0.875h0.024v-3.466H149.793z M148.75,407.324c0-0.133-0.012-0.312-0.048-0.444
	c-0.156-0.66-0.731-1.211-1.523-1.211c-1.091,0-1.738,0.959-1.738,2.231c0,1.174,0.588,2.146,1.715,2.146
	c0.708,0,1.354-0.479,1.547-1.259c0.036-0.145,0.048-0.288,0.048-0.456V407.324z"/>
<path fill="#ED1C24" d="M156.417,409.171c0,0.612,0.012,1.14,0.048,1.595h-0.936l-0.061-0.947h-0.023
	c-0.265,0.467-0.888,1.08-1.919,1.08c-0.911,0-2.004-0.517-2.004-2.543v-3.394h1.057v3.202c0,1.104,0.348,1.859,1.295,1.859
	c0.708,0,1.199-0.492,1.391-0.972c0.061-0.144,0.097-0.336,0.097-0.54v-3.55h1.056V409.171L156.417,409.171z"/>
<path fill="#ED1C24" d="M158.029,409.699c0.323,0.191,0.875,0.408,1.402,0.408c0.756,0,1.115-0.373,1.115-0.863
	c0-0.504-0.3-0.769-1.067-1.057c-1.055-0.384-1.547-0.947-1.547-1.643c0-0.936,0.769-1.703,2.003-1.703
	c0.588,0,1.104,0.156,1.415,0.359l-0.252,0.769c-0.228-0.144-0.646-0.348-1.187-0.348c-0.624,0-0.959,0.36-0.959,0.792
	c0,0.479,0.335,0.695,1.091,0.996c0.995,0.371,1.523,0.875,1.523,1.738c0,1.031-0.804,1.752-2.159,1.752
	c-0.637,0-1.224-0.168-1.631-0.408L158.029,409.699z"/>
<path fill="#ED1C24" d="M164.196,403.57v1.392h1.511v0.803h-1.511v3.13c0,0.721,0.204,1.127,0.792,1.127
	c0.288,0,0.456-0.023,0.611-0.072l0.048,0.804c-0.203,0.071-0.527,0.144-0.936,0.144c-0.492,0-0.888-0.168-1.14-0.443
	c-0.288-0.324-0.408-0.84-0.408-1.523v-3.167h-0.899v-0.803h0.899v-1.08L164.196,403.57z"/>
<path fill="#ED1C24" d="M166.896,406.773c0-0.685-0.012-1.271-0.048-1.812h0.923l0.049,1.151h0.035
	c0.265-0.78,0.912-1.271,1.619-1.271c0.108,0,0.192,0.012,0.288,0.023v0.996c-0.107-0.023-0.216-0.023-0.359-0.023
	c-0.744,0-1.271,0.552-1.416,1.343c-0.024,0.144-0.036,0.324-0.036,0.492v3.094h-1.057v-3.993H166.896z"/>
<path fill="#ED1C24" d="M172.043,403.33c0,0.359-0.252,0.647-0.671,0.647c-0.384,0-0.636-0.288-0.636-0.647
	c0-0.36,0.264-0.66,0.659-0.66C171.78,402.671,172.043,402.959,172.043,403.33z M170.867,410.766v-5.805h1.056v5.805H170.867z"/>
<path fill="#ED1C24" d="M174.263,408.056c0.024,1.427,0.923,2.015,1.991,2.015c0.755,0,1.223-0.131,1.607-0.299l0.191,0.756
	c-0.372,0.168-1.019,0.371-1.942,0.371c-1.787,0-2.854-1.187-2.854-2.938s1.032-3.118,2.723-3.118c1.907,0,2.399,1.655,2.399,2.724
	c0,0.215-0.012,0.371-0.036,0.491h-4.079V408.056z M177.359,407.3c0.012-0.659-0.276-1.703-1.464-1.703
	c-1.078,0-1.534,0.972-1.618,1.703H177.359z"/>
<path fill="#ED1C24" d="M179.543,409.699c0.324,0.191,0.875,0.408,1.403,0.408c0.756,0,1.114-0.373,1.114-0.863
	c0-0.504-0.3-0.769-1.066-1.057c-1.055-0.384-1.547-0.947-1.547-1.643c0-0.936,0.768-1.703,2.003-1.703
	c0.587,0,1.103,0.156,1.415,0.359l-0.252,0.769c-0.229-0.144-0.647-0.348-1.188-0.348c-0.624,0-0.959,0.36-0.959,0.792
	c0,0.479,0.335,0.695,1.091,0.996c0.995,0.371,1.523,0.875,1.523,1.738c0,1.031-0.803,1.752-2.159,1.752
	c-0.636,0-1.223-0.168-1.631-0.408L179.543,409.699z"/>
<path fill="#ED1C24" d="M183.624,412.254c0.264-0.721,0.588-2.003,0.72-2.878l1.175-0.12c-0.287,1.02-0.814,2.352-1.15,2.915
	L183.624,412.254z"/>
<path fill="#ED1C24" d="M189.36,402.683h1.056v7.208h3.454v0.875h-4.51V402.683z"/>
<path fill="#ED1C24" d="M195.024,402.683h1.056v7.208h3.454v0.875h-4.51V402.683z"/>
<path fill="#ED1C24" d="M205.868,410.514c-0.372,0.192-1.151,0.385-2.135,0.385c-2.279,0-3.982-1.439-3.982-4.103
	c0-2.542,1.715-4.246,4.222-4.246c0.996,0,1.644,0.216,1.919,0.36l-0.264,0.851c-0.384-0.19-0.948-0.335-1.619-0.335
	c-1.895,0-3.154,1.211-3.154,3.334c0,1.991,1.14,3.25,3.095,3.25c0.646,0,1.295-0.132,1.715-0.336L205.868,410.514z"/>
<path fill="#ED1C24" d="M206.904,410.143c0-0.432,0.3-0.756,0.72-0.756s0.708,0.312,0.708,0.756c0,0.432-0.288,0.756-0.731,0.756
	C207.192,410.898,206.904,410.574,206.904,410.143z"/>
<path fill="#ED1C24" d="M28.201,422.624l-0.839,2.542h-1.08l2.758-8.083h1.248l2.758,8.083h-1.115l-0.863-2.542H28.201
	L28.201,422.624z M30.865,421.808l-0.805-2.327c-0.18-0.526-0.3-1.007-0.419-1.475h-0.024c-0.12,0.468-0.24,0.972-0.408,1.463
	l-0.792,2.338L30.865,421.808L30.865,421.808z"/>
<path fill="#ED1C24" d="M34.166,416.65h1.056v8.516h-1.056V416.65z"/>
<path fill="#ED1C24" d="M36.998,416.65h1.056v8.516h-1.056V416.65z"/>
<path fill="#ED1C24" d="M42.373,421.173c0-0.685-0.012-1.271-0.048-1.812h0.923l0.048,1.151h0.036
	c0.264-0.78,0.912-1.271,1.619-1.271c0.107,0,0.191,0.012,0.288,0.023v0.996c-0.108-0.023-0.216-0.023-0.36-0.023
	c-0.744,0-1.271,0.552-1.416,1.343c-0.024,0.144-0.036,0.323-0.036,0.491v3.095h-1.056v-3.994H42.373z"/>
<path fill="#ED1C24" d="M46.765,422.456c0.024,1.427,0.923,2.015,1.991,2.015c0.755,0,1.223-0.132,1.607-0.3l0.191,0.756
	c-0.372,0.168-1.019,0.372-1.942,0.372c-1.787,0-2.854-1.188-2.854-2.938s1.032-3.119,2.724-3.119c1.906,0,2.398,1.656,2.398,2.724
	c0,0.216-0.012,0.372-0.036,0.492h-4.079V422.456z M49.861,421.699c0.012-0.659-0.276-1.702-1.464-1.702
	c-1.078,0-1.534,0.971-1.618,1.702H49.861z"/>
<path fill="#ED1C24" d="M52.19,421.257c0-0.744-0.024-1.343-0.049-1.896h0.937l0.06,0.996h0.024
	c0.419-0.709,1.115-1.115,2.062-1.115c1.416,0,2.472,1.188,2.472,2.938c0,2.087-1.283,3.118-2.65,3.118
	c-0.768,0-1.439-0.336-1.787-0.912h-0.023v3.154h-1.043L52.19,421.257L52.19,421.257z M53.234,422.803
	c0,0.156,0.012,0.3,0.048,0.432c0.191,0.732,0.828,1.235,1.583,1.235c1.114,0,1.763-0.911,1.763-2.243
	c0-1.15-0.611-2.146-1.727-2.146c-0.721,0-1.403,0.503-1.596,1.295c-0.036,0.132-0.071,0.288-0.071,0.42V422.803z"/>
<path fill="#ED1C24" d="M59.017,421.173c0-0.685-0.012-1.271-0.048-1.812h0.923l0.049,1.151h0.035
	c0.265-0.78,0.912-1.271,1.619-1.271c0.108,0,0.192,0.012,0.288,0.023v0.996c-0.107-0.023-0.216-0.023-0.358-0.023
	c-0.744,0-1.271,0.552-1.416,1.343c-0.024,0.144-0.036,0.323-0.036,0.491v3.095h-1.057L59.017,421.173L59.017,421.173z"/>
<path fill="#ED1C24" d="M68.074,422.216c0,2.146-1.499,3.082-2.891,3.082c-1.559,0-2.782-1.151-2.782-2.986
	c0-1.931,1.283-3.069,2.878-3.069C66.948,419.24,68.074,420.453,68.074,422.216z M63.482,422.275c0,1.271,0.72,2.231,1.751,2.231
	c1.007,0,1.763-0.947,1.763-2.255c0-0.983-0.492-2.219-1.739-2.219C64.02,420.033,63.482,421.184,63.482,422.275z"/>
<path fill="#ED1C24" d="M74.411,416.65v7.017c0,0.516,0.023,1.103,0.048,1.499h-0.936l-0.049-1.008h-0.036
	c-0.312,0.647-1.007,1.14-1.954,1.14c-1.403,0-2.495-1.188-2.495-2.95c-0.013-1.931,1.199-3.105,2.603-3.105
	c0.9,0,1.487,0.42,1.751,0.875h0.024v-3.467H74.411z M73.367,421.724c0-0.132-0.013-0.312-0.048-0.444
	c-0.156-0.66-0.731-1.211-1.523-1.211c-1.091,0-1.739,0.959-1.739,2.231c0,1.175,0.588,2.146,1.715,2.146
	c0.708,0,1.355-0.479,1.548-1.258c0.035-0.145,0.048-0.289,0.048-0.457V421.724z"/>
<path fill="#ED1C24" d="M81.034,423.57c0,0.612,0.012,1.141,0.048,1.596h-0.937l-0.06-0.947h-0.024
	c-0.264,0.469-0.887,1.079-1.919,1.079c-0.91,0-2.003-0.517-2.003-2.542v-3.395h1.057v3.203c0,1.104,0.348,1.858,1.295,1.858
	c0.708,0,1.199-0.492,1.391-0.972c0.061-0.144,0.096-0.336,0.096-0.539v-3.551h1.057V423.57z"/>
<path fill="#ED1C24" d="M86.927,424.962c-0.275,0.132-0.887,0.336-1.667,0.336c-1.751,0-2.891-1.188-2.891-2.962
	c0-1.787,1.224-3.094,3.119-3.094c0.624,0,1.175,0.156,1.463,0.312l-0.24,0.804c-0.252-0.133-0.647-0.275-1.223-0.275
	c-1.332,0-2.052,0.994-2.052,2.193c0,1.344,0.864,2.172,2.016,2.172c0.6,0,0.996-0.145,1.295-0.276L86.927,424.962z"/>
<path fill="#ED1C24" d="M89.593,417.97v1.392h1.511v0.804h-1.511v3.13c0,0.72,0.204,1.127,0.792,1.127
	c0.288,0,0.456-0.023,0.612-0.072l0.048,0.803c-0.204,0.072-0.528,0.145-0.936,0.145c-0.492,0-0.889-0.168-1.141-0.444
	c-0.288-0.323-0.408-0.839-0.408-1.522v-3.168h-0.898v-0.803h0.898v-1.08L89.593,417.97z"/>
<path fill="#ED1C24" d="M93.468,417.73c0,0.359-0.252,0.647-0.671,0.647c-0.384,0-0.636-0.288-0.636-0.647
	c0-0.361,0.264-0.66,0.66-0.66C93.204,417.07,93.468,417.359,93.468,417.73z M92.293,425.166v-5.805h1.056v5.805H92.293z"/>
<path fill="#ED1C24" d="M100.354,422.216c0,2.146-1.499,3.082-2.89,3.082c-1.559,0-2.783-1.151-2.783-2.986
	c0-1.931,1.284-3.069,2.878-3.069C99.227,419.24,100.354,420.453,100.354,422.216z M95.761,422.275c0,1.271,0.721,2.231,1.751,2.231
	c1.007,0,1.764-0.947,1.764-2.255c0-0.983-0.492-2.219-1.739-2.219C96.3,420.033,95.761,421.184,95.761,422.275z"/>
<path fill="#ED1C24" d="M101.689,420.932c0-0.611-0.012-1.091-0.048-1.57h0.937l0.06,0.959h0.024c0.288-0.541,0.959-1.08,1.919-1.08
	c0.803,0,2.051,0.479,2.051,2.471v3.454h-1.056v-3.347c0-0.936-0.349-1.715-1.343-1.715c-0.685,0-1.224,0.492-1.415,1.079
	c-0.049,0.132-0.072,0.312-0.072,0.492v3.49h-1.057V420.932z"/>
<path fill="#ED1C24" d="M108.204,424.099c0.324,0.192,0.875,0.408,1.403,0.408c0.756,0,1.114-0.372,1.114-0.863
	c0-0.504-0.3-0.768-1.066-1.056c-1.056-0.385-1.547-0.947-1.547-1.643c0-0.937,0.768-1.703,2.003-1.703
	c0.587,0,1.103,0.156,1.415,0.359l-0.252,0.768c-0.229-0.144-0.647-0.348-1.188-0.348c-0.624,0-0.959,0.36-0.959,0.793
	c0,0.479,0.335,0.694,1.091,0.994c0.995,0.372,1.523,0.876,1.523,1.739c0,1.03-0.803,1.751-2.159,1.751
	c-0.636,0-1.223-0.168-1.631-0.408L108.204,424.099z"/>
<path fill="#ED1C24" d="M115.644,420.932c0-0.611-0.023-1.091-0.048-1.57h0.923l0.049,0.946h0.035
	c0.324-0.552,0.864-1.067,1.835-1.067c0.78,0,1.38,0.48,1.632,1.164h0.023c0.181-0.336,0.419-0.576,0.66-0.756
	c0.348-0.264,0.719-0.408,1.271-0.408c0.779,0,1.919,0.504,1.919,2.52v3.406h-1.031v-3.274c0-1.127-0.42-1.786-1.259-1.786
	c-0.612,0-1.067,0.442-1.26,0.946c-0.048,0.156-0.084,0.336-0.084,0.528v3.586h-1.031v-3.479c0-0.923-0.408-1.582-1.211-1.582
	c-0.648,0-1.141,0.526-1.309,1.055c-0.06,0.144-0.084,0.336-0.084,0.516v3.49h-1.031V420.932z"/>
<path fill="#ED1C24" d="M130.51,423.57c0,0.612,0.012,1.141,0.048,1.596h-0.936l-0.061-0.947h-0.023
	c-0.264,0.469-0.887,1.079-1.919,1.079c-0.911,0-2.003-0.517-2.003-2.542v-3.395h1.056v3.203c0,1.104,0.348,1.858,1.295,1.858
	c0.708,0,1.199-0.492,1.392-0.972c0.06-0.144,0.096-0.336,0.096-0.539v-3.551h1.056V423.57z"/>
<path fill="#ED1C24" d="M132.12,424.099c0.324,0.192,0.875,0.408,1.403,0.408c0.756,0,1.114-0.372,1.114-0.863
	c0-0.504-0.3-0.768-1.066-1.056c-1.056-0.385-1.547-0.947-1.547-1.643c0-0.937,0.768-1.703,2.003-1.703
	c0.587,0,1.103,0.156,1.415,0.359l-0.252,0.768c-0.229-0.144-0.647-0.348-1.188-0.348c-0.624,0-0.959,0.36-0.959,0.793
	c0,0.479,0.335,0.694,1.091,0.994c0.995,0.372,1.523,0.876,1.523,1.739c0,1.03-0.804,1.751-2.159,1.751
	c-0.636,0-1.223-0.168-1.631-0.408L132.12,424.099z"/>
<path fill="#ED1C24" d="M138.288,417.97v1.392h1.511v0.804h-1.511v3.13c0,0.72,0.204,1.127,0.792,1.127
	c0.288,0,0.456-0.023,0.612-0.072l0.048,0.803c-0.204,0.072-0.528,0.145-0.937,0.145c-0.492,0-0.888-0.168-1.14-0.444
	c-0.288-0.323-0.408-0.839-0.408-1.522v-3.168h-0.898v-0.803h0.898v-1.08L138.288,417.97z"/>
<path fill="#ED1C24" d="M144.707,417.73c0,0.359-0.252,0.647-0.671,0.647c-0.384,0-0.636-0.288-0.636-0.647
	c0-0.361,0.264-0.66,0.659-0.66C144.445,417.07,144.707,417.359,144.707,417.73z M143.532,425.166v-5.805h1.056v5.805H143.532z"/>
<path fill="#ED1C24" d="M146.34,420.932c0-0.611-0.012-1.091-0.048-1.57h0.936l0.061,0.959h0.023c0.288-0.541,0.959-1.08,1.92-1.08
	c0.803,0,2.051,0.479,2.051,2.471v3.454h-1.057v-3.347c0-0.936-0.348-1.715-1.343-1.715c-0.684,0-1.223,0.492-1.415,1.079
	c-0.048,0.132-0.072,0.312-0.072,0.492v3.49h-1.056V420.932z"/>
<path fill="#ED1C24" d="M157.137,424.962c-0.275,0.132-0.888,0.336-1.667,0.336c-1.751,0-2.891-1.188-2.891-2.962
	c0-1.787,1.224-3.094,3.119-3.094c0.624,0,1.175,0.156,1.463,0.312l-0.24,0.804c-0.252-0.133-0.646-0.275-1.223-0.275
	c-1.332,0-2.052,0.994-2.052,2.193c0,1.344,0.864,2.172,2.016,2.172c0.6,0,0.996-0.145,1.295-0.276L157.137,424.962z"/>
<path fill="#ED1C24" d="M158.376,416.65h1.056v8.516h-1.056V416.65z"/>
<path fill="#ED1C24" d="M166.066,423.57c0,0.612,0.012,1.141,0.048,1.596h-0.937l-0.06-0.947h-0.024
	c-0.264,0.469-0.887,1.079-1.919,1.079c-0.911,0-2.003-0.517-2.003-2.542v-3.395h1.056v3.203c0,1.104,0.349,1.858,1.295,1.858
	c0.708,0,1.199-0.492,1.392-0.972c0.06-0.144,0.096-0.336,0.096-0.539v-3.551h1.057V423.57L166.066,423.57z"/>
<path fill="#ED1C24" d="M172.822,416.65v7.017c0,0.516,0.023,1.103,0.048,1.499h-0.937l-0.048-1.008h-0.036
	c-0.312,0.647-1.007,1.14-1.955,1.14c-1.402,0-2.494-1.188-2.494-2.95c-0.013-1.931,1.199-3.105,2.603-3.105
	c0.9,0,1.487,0.42,1.751,0.875h0.024v-3.467H172.822z M171.779,421.724c0-0.132-0.013-0.312-0.049-0.444
	c-0.155-0.66-0.73-1.211-1.522-1.211c-1.091,0-1.739,0.959-1.739,2.231c0,1.175,0.588,2.146,1.715,2.146
	c0.708,0,1.355-0.479,1.547-1.258c0.036-0.145,0.049-0.289,0.049-0.457V421.724z"/>
<path fill="#ED1C24" d="M175.176,422.456c0.024,1.427,0.923,2.015,1.991,2.015c0.755,0,1.223-0.132,1.607-0.3l0.191,0.756
	c-0.372,0.168-1.019,0.372-1.942,0.372c-1.787,0-2.854-1.188-2.854-2.938s1.032-3.119,2.723-3.119c1.907,0,2.399,1.656,2.399,2.724
	c0,0.216-0.012,0.372-0.036,0.492h-4.079V422.456z M178.27,421.699c0.013-0.659-0.275-1.702-1.463-1.702
	c-1.079,0-1.535,0.971-1.619,1.702H178.27z"/>
<path fill="#ED1C24" d="M184.415,417.97v1.392h1.511v0.804h-1.511v3.13c0,0.72,0.204,1.127,0.792,1.127
	c0.288,0,0.456-0.023,0.612-0.072l0.048,0.803c-0.204,0.072-0.528,0.145-0.937,0.145c-0.492,0-0.888-0.168-1.14-0.444
	c-0.288-0.323-0.408-0.839-0.408-1.522v-3.168h-0.898v-0.803h0.898v-1.08L184.415,417.97z"/>
<path fill="#ED1C24" d="M187.116,416.65h1.056v3.635h0.024c0.168-0.301,0.432-0.576,0.755-0.756c0.312-0.18,0.684-0.287,1.08-0.287
	c0.778,0,2.026,0.479,2.026,2.471v3.454h-1.056v-3.334c0-0.937-0.348-1.716-1.343-1.716c-0.685,0-1.211,0.48-1.415,1.043
	c-0.061,0.156-0.072,0.312-0.072,0.505v3.502h-1.056V416.65z"/>
<path fill="#ED1C24" d="M194.95,417.73c0,0.359-0.252,0.647-0.671,0.647c-0.385,0-0.637-0.288-0.637-0.647
	c0-0.361,0.265-0.66,0.66-0.66C194.687,417.07,194.95,417.359,194.95,417.73z M193.776,425.166v-5.805h1.056v5.805H193.776z"/>
<path fill="#ED1C24" d="M196.439,424.099c0.324,0.192,0.875,0.408,1.403,0.408c0.756,0,1.115-0.372,1.115-0.863
	c0-0.504-0.3-0.768-1.067-1.056c-1.055-0.385-1.547-0.947-1.547-1.643c0-0.937,0.769-1.703,2.003-1.703
	c0.587,0,1.104,0.156,1.415,0.359l-0.252,0.768c-0.228-0.144-0.646-0.348-1.187-0.348c-0.624,0-0.959,0.36-0.959,0.793
	c0,0.479,0.335,0.694,1.091,0.994c0.996,0.372,1.522,0.876,1.522,1.739c0,1.03-0.803,1.751-2.158,1.751
	c-0.637,0-1.224-0.168-1.632-0.408L196.439,424.099z"/>
<path fill="#ED1C24" d="M205.152,417.97v1.392h1.511v0.804h-1.511v3.13c0,0.72,0.203,1.127,0.792,1.127
	c0.288,0,0.456-0.023,0.61-0.072l0.048,0.803c-0.203,0.072-0.527,0.145-0.936,0.145c-0.492,0-0.888-0.168-1.14-0.444
	c-0.288-0.323-0.408-0.839-0.408-1.522v-3.168h-0.899v-0.803h0.899v-1.08L205.152,417.97z"/>
<path fill="#ED1C24" d="M208.367,422.456c0.023,1.427,0.923,2.015,1.991,2.015c0.755,0,1.223-0.132,1.606-0.3l0.192,0.756
	c-0.372,0.168-1.02,0.372-1.943,0.372c-1.787,0-2.854-1.188-2.854-2.938s1.031-3.119,2.723-3.119c1.907,0,2.399,1.656,2.399,2.724
	c0,0.216-0.013,0.372-0.036,0.492h-4.079V422.456z M211.461,421.699c0.012-0.659-0.276-1.702-1.463-1.702
	c-1.079,0-1.535,0.971-1.619,1.702H211.461z"/>
<path fill="#ED1C24" d="M214.247,419.361l0.828,1.248c0.228,0.323,0.408,0.611,0.6,0.936h0.024c0.191-0.336,0.384-0.637,0.588-0.947
	l0.803-1.234h1.151l-1.979,2.806l2.027,2.999h-1.188l-0.862-1.307c-0.229-0.336-0.42-0.66-0.624-1.009h-0.024
	c-0.192,0.349-0.384,0.66-0.612,1.009l-0.839,1.307h-1.164l2.063-2.962l-1.967-2.843h1.176V419.361z"/>
<path fill="#ED1C24" d="M220.74,417.97v1.392h1.511v0.804h-1.511v3.13c0,0.72,0.204,1.127,0.792,1.127
	c0.288,0,0.456-0.023,0.61-0.072l0.049,0.803c-0.204,0.072-0.528,0.145-0.937,0.145c-0.492,0-0.888-0.168-1.14-0.444
	c-0.288-0.323-0.408-0.839-0.408-1.522v-3.168h-0.899v-0.803h0.899v-1.08L220.74,417.97z"/>
<path fill="#ED1C24" d="M223.152,424.543c0-0.432,0.3-0.756,0.72-0.756s0.708,0.312,0.708,0.756c0,0.432-0.288,0.755-0.731,0.755
	C223.439,425.298,223.152,424.974,223.152,424.543z"/>
<rect x="123.599" y="73.635" fill="none" stroke="#000000" width="34.016" height="8.787"/>
<path fill="none" stroke="#000000" d="M176.246,103.397v-5.67c0-1.564,1.271-2.834,2.836-2.834h28.346
	c1.563,0,2.834,1.27,2.834,2.834v5.67h36.851c1.564,0,2.834,1.27,2.834,2.834v154.49c0,1.564-1.27,2.832-2.834,2.832h-54.567v5.67
	c0,1.564-1.271,2.834-2.834,2.834h-28.346c-1.565,0-2.836-1.27-2.836-2.834v-5.67H91.918v5.67c0,1.564-1.271,2.834-2.834,2.834
	H60.736c-1.563,0-2.834-1.27-2.834-2.834v-5.67H3.336c-1.566,0-2.836-1.268-2.836-2.832v-154.49c0-1.564,1.27-2.834,2.836-2.834
	h36.849v-5.67c0-1.564,1.271-2.834,2.834-2.834h28.349c1.563,0,2.834,1.27,2.834,2.834v5.67h34.03v-5.67
	c0-1.564,1.271-2.834,2.834-2.834h28.349c1.563,0,2.834,1.27,2.834,2.834v5.67H176.246z"/>
</svg>
